<?xml version="1.0" encoding="utf-8"?>
<!-- Generator: Adobe Illustrator 24.1.2, SVG Export Plug-In . SVG Version: 6.00 Build 0)  -->
<svg version="1.1" id="Layer_1" xmlns="http://www.w3.org/2000/svg" xmlns:xlink="http://www.w3.org/1999/xlink" x="0px" y="0px"
	 viewBox="0 0 1440 529" style="enable-background:new 0 0 1440 529;" xml:space="preserve">
<style type="text/css">
	.st0{fill:url(#SVGID_1_);fill-opacity:0.25;}
	.st1{opacity:0.9;}
	.st2{opacity:0.3;fill:url(#SVGID_2_);enable-background:new    ;}
	.st3{opacity:0.5;}
	.st4{opacity:0.4;fill:url(#SVGID_3_);enable-background:new    ;}
	.st5{opacity:0.3;fill:url(#SVGID_4_);enable-background:new    ;}
	.st6{opacity:0.3;fill:url(#SVGID_5_);enable-background:new    ;}
	.st7{opacity:0.3;fill:url(#SVGID_6_);enable-background:new    ;}
	.st8{opacity:0.3;fill:url(#SVGID_7_);enable-background:new    ;}
	.st9{opacity:0.2;fill:url(#SVGID_8_);enable-background:new    ;}
	.st10{opacity:0.3;fill:url(#SVGID_9_);enable-background:new    ;}
	.st11{opacity:0.2;fill:url(#SVGID_10_);enable-background:new    ;}
	.st12{opacity:0.2;fill:url(#SVGID_11_);enable-background:new    ;}
	.st13{opacity:0.3;fill:url(#SVGID_12_);enable-background:new    ;}
	.st14{opacity:0.3;fill:url(#SVGID_13_);enable-background:new    ;}
	.st15{fill:#FFFFFF;fill-opacity:0.4;}
	.st16{fill:url(#SVGID_14_);}
	.st17{fill:url(#SVGID_15_);}
	.st18{fill:url(#SVGID_16_);}
	.st19{fill:url(#SVGID_17_);}
	.st20{fill:url(#SVGID_18_);}
	.st21{fill:url(#SVGID_19_);}
	.st22{fill:url(#SVGID_20_);}
	.st23{fill:url(#SVGID_21_);}
	.st24{fill:url(#SVGID_22_);}
	.st25{fill:url(#SVGID_23_);}
	.st26{fill:url(#SVGID_24_);}
	.st27{fill:url(#SVGID_25_);}
	.st28{fill:url(#SVGID_26_);}
	.st29{fill:url(#SVGID_27_);}
	.st30{fill:url(#SVGID_28_);}
	.st31{fill:url(#SVGID_29_);}
	.st32{fill:url(#SVGID_30_);}
	.st33{fill:url(#SVGID_31_);}
</style>
<linearGradient id="SVGID_1_" gradientUnits="userSpaceOnUse" x1="-1.7817" y1="263.3953" x2="1445.7144" y2="267.5376" gradientTransform="matrix(1 0 0 -1 0 530)">
	<stop  offset="0" style="stop-color:#5171C0"/>
	<stop  offset="1" style="stop-color:#5BB0B5"/>
</linearGradient>
<rect x="-1" y="0" class="st0" width="1446" height="529"/>
<g class="st1">
	
		<linearGradient id="SVGID_2_" gradientUnits="userSpaceOnUse" x1="42221.125" y1="155.2791" x2="96985.2266" y2="-261.1193" gradientTransform="matrix(1 0 0 -1 0 530)">
		<stop  offset="0" style="stop-color:#CEDFFF"/>
		<stop  offset="0.25" style="stop-color:#32D8DD"/>
		<stop  offset="0.5" style="stop-color:#60DF84"/>
		<stop  offset="0.75" style="stop-color:#FFD429"/>
		<stop  offset="1" style="stop-color:#DF2D5C"/>
	</linearGradient>
	<path class="st2" d="M1428.3,13.6l29.3,50.7l-29.3,50.7h-58.5l-29.2-50.7l29.2-50.7H1428.3z"/>
	<g class="st3">
		
			<linearGradient id="SVGID_3_" gradientUnits="userSpaceOnUse" x1="41957.7812" y1="4.0737" x2="96721.8828" y2="-412.2271" gradientTransform="matrix(1 0 0 -1 0 530)">
			<stop  offset="0" style="stop-color:#CEDFFF"/>
			<stop  offset="0.25" style="stop-color:#32D8DD"/>
			<stop  offset="0.5" style="stop-color:#60DF84"/>
			<stop  offset="0.75" style="stop-color:#FFD429"/>
			<stop  offset="1" style="stop-color:#DF2D5C"/>
		</linearGradient>
		<path class="st4" d="M1164.3,164.9l29.3,50.7l-29.3,50.7h-58.5l-29.2-50.7l29.2-50.7H1164.3z"/>
		
			<linearGradient id="SVGID_4_" gradientUnits="userSpaceOnUse" x1="41869.7109" y1="-248.6759" x2="96633.8125" y2="-664.9767" gradientTransform="matrix(1 0 0 -1 0 530)">
			<stop  offset="0" style="stop-color:#CEDFFF"/>
			<stop  offset="0.25" style="stop-color:#32D8DD"/>
			<stop  offset="0.5" style="stop-color:#60DF84"/>
			<stop  offset="0.75" style="stop-color:#FFD429"/>
			<stop  offset="1" style="stop-color:#DF2D5C"/>
		</linearGradient>
		<path class="st5" d="M1076.3,417.7l29.3,50.7l-29.3,50.7h-58.5l-29.3-50.7l29.3-50.7H1076.3z"/>
		
			<linearGradient id="SVGID_5_" gradientUnits="userSpaceOnUse" x1="42133.5352" y1="3.6468" x2="96897.6328" y2="-412.654" gradientTransform="matrix(1 0 0 -1 0 530)">
			<stop  offset="0" style="stop-color:#CEDFFF"/>
			<stop  offset="0.25" style="stop-color:#32D8DD"/>
			<stop  offset="0.5" style="stop-color:#60DF84"/>
			<stop  offset="0.75" style="stop-color:#FFD429"/>
			<stop  offset="1" style="stop-color:#DF2D5C"/>
		</linearGradient>
		<path class="st6" d="M1339.9,165.3l29.2,50.7l-29.2,50.7h-58.6l-29.2-50.7l29.2-50.7H1339.9z"/>
		
			<linearGradient id="SVGID_6_" gradientUnits="userSpaceOnUse" x1="41606.1875" y1="108.058" x2="96370.2812" y2="-306.8404" gradientTransform="matrix(1 0 0 -1 0 530)">
			<stop  offset="0" style="stop-color:#CEDFFF"/>
			<stop  offset="0.25" style="stop-color:#32D8DD"/>
			<stop  offset="0.5" style="stop-color:#60DF84"/>
			<stop  offset="0.75" style="stop-color:#FFD429"/>
			<stop  offset="1" style="stop-color:#DF2D5C"/>
		</linearGradient>
		<path class="st7" d="M814.2,62l29.3,50.7l-29.3,50.7h-58.5l-29.3-50.7L755.7,62H814.2z"/>
		
			<linearGradient id="SVGID_7_" gradientUnits="userSpaceOnUse" x1="40904.5859" y1="108.6113" x2="95669.8906" y2="-307.6895" gradientTransform="matrix(1 0 0 -1 0 530)">
			<stop  offset="0" style="stop-color:#CEDFFF"/>
			<stop  offset="0.25" style="stop-color:#32D8DD"/>
			<stop  offset="0.5" style="stop-color:#60DF84"/>
			<stop  offset="0.75" style="stop-color:#FFD429"/>
			<stop  offset="1" style="stop-color:#DF2D5C"/>
		</linearGradient>
		<path class="st8" d="M112.2,60.4l29.3,50.7l-29.3,50.7H53.7l-29.2-50.7l29.2-50.7H112.2z"/>
		
			<linearGradient id="SVGID_8_" gradientUnits="userSpaceOnUse" x1="40993.4961" y1="-43.2461" x2="95757.5938" y2="-459.6445" gradientTransform="matrix(1 0 0 -1 0 530)">
			<stop  offset="0" style="stop-color:#CEDFFF"/>
			<stop  offset="0.25" style="stop-color:#32D8DD"/>
			<stop  offset="0.5" style="stop-color:#60DF84"/>
			<stop  offset="0.75" style="stop-color:#FFD429"/>
			<stop  offset="1" style="stop-color:#DF2D5C"/>
		</linearGradient>
		<path class="st9" d="M200,212.2l29.2,50.7L200,313.5h-58.5l-29.3-50.7l29.3-50.7H200z"/>
		
			<linearGradient id="SVGID_9_" gradientUnits="userSpaceOnUse" x1="41343.1953" y1="-246.9277" x2="96107.1953" y2="-663.4277" gradientTransform="matrix(1 0 0 -1 0 530)">
			<stop  offset="0" style="stop-color:#CEDFFF"/>
			<stop  offset="0.25" style="stop-color:#32D8DD"/>
			<stop  offset="0.5" style="stop-color:#60DF84"/>
			<stop  offset="0.75" style="stop-color:#FFD429"/>
			<stop  offset="1" style="stop-color:#DF2D5C"/>
		</linearGradient>
		<path class="st10" d="M550.1,415.8l29.2,50.6l-29.2,50.7h-58.5l-29.3-50.7l29.3-50.6H550.1z"/>
		
			<linearGradient id="SVGID_10_" gradientUnits="userSpaceOnUse" x1="41532.4922" y1="-44.9274" x2="96311.9922" y2="-461.4274" gradientTransform="matrix(1 0 0 -1 0 530)">
			<stop  offset="0" style="stop-color:#CEDFFF"/>
			<stop  offset="0.25" style="stop-color:#32D8DD"/>
			<stop  offset="0.5" style="stop-color:#60DF84"/>
			<stop  offset="0.75" style="stop-color:#FFD429"/>
			<stop  offset="1" style="stop-color:#DF2D5C"/>
		</linearGradient>
		<path class="st11" d="M726.3,213.8l29.3,50.7l-29.3,50.7h-58.5l-29.3-50.7l29.3-50.7H726.3z"/>
		
			<linearGradient id="SVGID_11_" gradientUnits="userSpaceOnUse" x1="42044.6758" y1="-249.4921" x2="96808.7812" y2="-665.7928" gradientTransform="matrix(1 0 0 -1 0 530)">
			<stop  offset="0" style="stop-color:#CEDFFF"/>
			<stop  offset="0.25" style="stop-color:#32D8DD"/>
			<stop  offset="0.5" style="stop-color:#60DF84"/>
			<stop  offset="0.75" style="stop-color:#FFD429"/>
			<stop  offset="1" style="stop-color:#DF2D5C"/>
		</linearGradient>
		<path class="st12" d="M1251.2,418.5l29.3,50.7l-29.3,50.7h-58.5l-29.2-50.7l29.2-50.7H1251.2z"/>
		
			<linearGradient id="SVGID_12_" gradientUnits="userSpaceOnUse" x1="41516.6641" y1="-45.4961" x2="96514.0625" y2="-463.5977" gradientTransform="matrix(1 0 0 -1 0 530)">
			<stop  offset="0" style="stop-color:#CEDFFF"/>
			<stop  offset="0.25" style="stop-color:#32D8DD"/>
			<stop  offset="0.5" style="stop-color:#60DF84"/>
			<stop  offset="0.75" style="stop-color:#FFD429"/>
			<stop  offset="1" style="stop-color:#DF2D5C"/>
		</linearGradient>
		<path class="st13" d="M551.1,212.9l29.4,50.9l-29.4,50.9h-58.8l-29.4-50.9l29.4-50.9H551.1z"/>
		
			<linearGradient id="SVGID_13_" gradientUnits="userSpaceOnUse" x1="41341.0469" y1="-146.083" x2="96338.4453" y2="-564.1807" gradientTransform="matrix(1 0 0 -1 0 530)">
			<stop  offset="0" style="stop-color:#CEDFFF"/>
			<stop  offset="0.25" style="stop-color:#32D8DD"/>
			<stop  offset="0.5" style="stop-color:#60DF84"/>
			<stop  offset="0.75" style="stop-color:#FFD429"/>
			<stop  offset="1" style="stop-color:#DF2D5C"/>
		</linearGradient>
		<path class="st14" d="M375.4,313.5l29.4,50.9l-29.4,50.9h-58.8l-29.4-50.9l29.4-50.9H375.4z"/>
	</g>
	<path class="st15" d="M-150.9,220c1,0,2.1-0.2,3-0.6l22.8,39.3c-0.6,0.5-1,1-1.3,1.7s-0.5,1.4-0.5,2.1c0,1.3,0.5,2.5,1.3,3.4
		c0.8,0.9,2,1.6,3.3,1.7c1.3,0.1,2.5-0.2,3.6-0.9c1-0.7,1.8-1.8,2.1-3h46.1c0.1,1.1,0.5,2.2,1.1,3.2c0.6,1,1.5,1.8,2.5,2.3
		c1,0.6,2.1,0.9,3.3,0.9c1.1,0,2.3-0.2,3.3-0.7l23,39.7c-0.7,0.5-1.2,1.2-1.6,2c-0.4,0.8-0.6,1.6-0.6,2.5c0,1.5,0.5,3,1.6,4.1
		c1,1.1,2.4,1.8,4,1.9c1.5,0.1,3-0.4,4.2-1.4c1.2-1,1.9-2.4,2.1-3.9h44.9c0.2,1.1,0.6,2.2,1.3,3.1c0.7,0.9,1.6,1.7,2.6,2.1
		c1,0.5,2.2,0.7,3.3,0.7c1.1,0,2.3-0.4,3.3-0.9c1-0.6,1.8-1.4,2.5-2.3c0.6-1,1-2.1,1.1-3.2c0.1-1.1-0.1-2.3-0.5-3.3
		c-0.4-1.1-1.1-2-2-2.7l22.6-39c0.7,0.3,1.6,0.5,2.4,0.5c1.5,0,3-0.5,4.2-1.5c1.1-1,1.9-2.4,2-3.9H106c0,1,0.3,1.9,0.8,2.8
		c0.5,0.8,1.2,1.6,2.1,2.1c0.9,0.5,1.8,0.8,2.8,0.8c1,0,2-0.2,2.9-0.6l23.3,40.4c-0.8,0.7-1.4,1.6-1.7,2.6c-0.3,1-0.3,2.1,0.1,3.1
		c0.3,1,1,1.9,1.8,2.5c0.9,0.6,1.9,1,2.9,1c1.2,0,2.4-0.4,3.4-1.1c0.9-0.8,1.6-1.8,1.8-3h47.6c0.2,1.5,0.8,2.8,1.9,3.9
		c1.1,1,2.5,1.6,4,1.6c0.9,0,1.8-0.2,2.7-0.6l23.5,41.1c-0.6,0.5-1.2,1.1-1.5,1.8c-0.4,0.7-0.6,1.5-0.6,2.3c0,0.8,0.1,1.6,0.5,2.3
		s0.8,1.3,1.4,1.8l-23.5,40.3c-0.9-0.4-1.9-0.5-2.9-0.4c-1,0.1-2,0.4-2.8,1c-0.8,0.6-1.5,1.3-2,2.2s-0.7,1.9-0.7,2.9
		c0,1,0.2,2,0.7,2.9c0.5,0.9,1.2,1.6,2,2.2c0.8,0.6,1.8,0.9,2.8,1c1,0.1,2,0,2.9-0.4l22.5,39.3c-1.3,0.8-2.3,2.1-2.8,3.6
		c-0.5,1.5-0.6,3.1-0.1,4.6c0.5,1.5,1.4,2.8,2.7,3.7c1.3,0.9,2.8,1.3,4.4,1.2c1.8,0.1,3.6-0.6,5-1.8c1.4-1.2,2.2-2.9,2.4-4.7h44.9
		c0.1,1,0.4,2,0.9,2.8c0.5,0.9,1.2,1.6,2.1,2.1c0.8,0.5,1.8,0.8,2.8,0.9c1,0.1,2-0.1,2.9-0.5l22.3,39c-0.9,0.6-1.6,1.5-2,2.4
		c-0.5,1-0.7,2-0.8,3.1c-0.1,0.9,0,1.9,0.3,2.8c0.3,0.9,0.8,1.7,1.4,2.5c0.6,0.7,1.4,1.3,2.2,1.7c0.8,0.4,1.8,0.7,2.7,0.8
		c0.9,0.1,1.9,0,2.8-0.3c0.9-0.3,1.7-0.8,2.5-1.4c0.7-0.6,1.3-1.4,1.7-2.2c0.4-0.8,0.7-1.8,0.8-2.7h46.1c0.1,0.9,0.4,1.7,0.9,2.4
		c0.5,0.7,1.2,1.3,1.9,1.7c0.8,0.4,1.6,0.6,2.5,0.5c0.9,0,1.7-0.3,2.4-0.7c0.7-0.4,1.4-1.1,1.8-1.8c0.4-0.7,0.7-1.6,0.7-2.4
		c0-0.9-0.2-1.7-0.5-2.5c-0.4-0.8-1-1.4-1.7-1.9l23.1-39.6c1,0.5,2.1,0.9,3.2,0.9c0.9,0,1.9-0.1,2.8-0.4c0.9-0.3,1.7-0.8,2.4-1.5
		c0.7-0.6,1.2-1.4,1.6-2.3c0.4-0.9,0.6-1.8,0.6-2.7h44.9c0.1,1.5,0.7,3,1.8,4c1.1,1.1,2.6,1.7,4.1,1.7c0.9,0,1.7-0.1,2.5-0.5
		l22.7,39.6c-0.8,0.6-1.3,1.4-1.7,2.3c-0.4,0.9-0.5,1.9-0.5,2.8c0.1,1,0.4,1.9,0.9,2.7c0.5,0.8,1.2,1.5,2.1,2
		c0.8,0.5,1.8,0.8,2.8,0.9c1,0.1,1.9-0.1,2.8-0.5c0.9-0.4,1.7-1,2.3-1.8c0.6-0.8,1-1.7,1.2-2.6l47.3,0.2c0.2,1.1,0.9,2.2,1.8,2.9
		c0.9,0.7,2,1.2,3.2,1.2c0.6,0,1.3-0.1,1.8-0.3l1.2-0.6c0.7-0.5,1.2-1.1,1.6-1.8c0.4-0.7,0.6-1.5,0.6-2.3c0-0.8-0.1-1.5-0.5-2.2
		s-0.8-1.3-1.4-1.8l23.2-39.9c0.9,0.4,1.8,0.6,2.8,0.6c1.8,0.1,3.5-0.5,4.9-1.7c1.4-1.2,2.2-2.8,2.4-4.5v-1.4
		c-0.1-1.8-0.8-3.6-2.2-4.9c-1.3-1.3-3.1-2-4.9-2c-1.2,0-2.3,0.2-3.3,0.7l-22.7-39.7c0.6-0.5,1.1-1.2,1.4-2c0.3-0.8,0.4-1.6,0.3-2.4
		c-0.1-0.8-0.3-1.6-0.8-2.3c-0.4-0.7-1-1.3-1.7-1.7c-0.7-0.4-1.5-0.6-2.3-0.7c-0.8,0-1.6,0.1-2.4,0.4c-0.7,0.3-1.4,0.8-1.9,1.4
		c-0.5,0.6-0.9,1.4-1.1,2.1h-48.5c-0.2-1.2-0.8-2.2-1.7-3c-0.9-0.8-2-1.2-3.2-1.2c-0.5,0-1,0.1-1.5,0.2l-23.9-41.7
		c0.6-0.5,1.2-1.1,1.5-1.8c0.4-0.7,0.6-1.5,0.6-2.3c0-0.8-0.2-1.6-0.6-2.3c-0.4-0.7-0.9-1.3-1.5-1.8l23.8-40.9
		c0.6,0.2,1.3,0.4,1.9,0.4c1.4,0,2.8-0.5,3.8-1.5c1-1,1.7-2.3,1.8-3.7h48.2c0.1,1.3,0.8,2.5,1.8,3.4c1,0.8,2.3,1.3,3.7,1.2
		c1.3-0.1,2.6-0.7,3.4-1.7s1.4-2.3,1.3-3.6c0-0.8-0.2-1.6-0.5-2.3c-0.3-0.7-0.9-1.3-1.5-1.8l23-39.6c0.8,0.3,1.7,0.5,2.6,0.5
		c1.8,0.1,3.6-0.6,5-1.8c1.4-1.2,2.2-3,2.3-4.8l45.5,0.2c0.1,1.6,0.8,3.1,1.9,4.3c1.2,1.1,2.7,1.8,4.3,1.8c0.9,0,1.8-0.2,2.7-0.6
		l23,40.2c-0.6,0.5-1.1,1.1-1.5,1.8c-0.4,0.7-0.6,1.4-0.6,2.2c0,0.9,0.2,1.7,0.6,2.5c0.4,0.8,1,1.4,1.7,1.9l-24.2,41.6
		c-0.5-0.2-1.1-0.3-1.6-0.3c-0.7-0.1-1.4,0-2.1,0.2c-0.7,0.2-1.3,0.6-1.8,1.1c-0.5,0.5-1,1.1-1.3,1.7c-0.3,0.6-0.5,1.4-0.5,2.1
		c0,0.7,0.1,1.4,0.4,2.1s0.7,1.3,1.2,1.8s1.1,0.9,1.8,1.1c0.7,0.2,1.4,0.4,2.1,0.3c0.6,0,1.1-0.1,1.7-0.2l22.8,39.8
		c-0.9,0.7-1.5,1.7-2,2.7c-0.4,1-0.6,2.2-0.5,3.3c0.1,1.1,0.5,2.2,1.1,3.2c0.6,1,1.4,1.8,2.4,2.3c1,0.6,2.1,0.9,3.2,1
		c1.1,0.1,2.3-0.1,3.3-0.6c1-0.5,1.9-1.1,2.7-2c0.7-0.9,1.2-1.9,1.4-3h46.1c0.2,1.3,0.9,2.4,1.9,3.2c1,0.8,2.3,1.2,3.5,1.1
		c1.3-0.1,2.5-0.6,3.4-1.5c0.9-0.9,1.4-2.1,1.5-3.4c0-0.8-0.1-1.6-0.5-2.3c-0.3-0.7-0.8-1.3-1.4-1.8l23.7-40.7
		c0.8,0.4,1.6,0.5,2.4,0.6c0.9,0.1,1.8,0,2.6-0.3c0.8-0.3,1.6-0.7,2.3-1.3c0.7-0.6,1.2-1.3,1.6-2.1c0.4-0.8,0.6-1.7,0.6-2.6
		c0-0.9-0.1-1.8-0.5-2.6c-0.3-0.8-0.8-1.6-1.5-2.2c-0.6-0.6-1.4-1.1-2.2-1.4c-0.8-0.3-1.7-0.5-2.6-0.4c-0.9,0-1.8,0.2-2.7,0.5
		l-22.3-39c1-0.6,1.9-1.5,2.5-2.5c0.6-1,0.9-2.2,1-3.4s-0.3-2.4-0.8-3.5c-0.6-1.1-1.4-2-2.4-2.6l23-39.6c0.6,0.3,1.3,0.4,2,0.5
		c1.3,0,2.5-0.4,3.5-1.3c1-0.8,1.6-2,1.7-3.3h47c0.1,1,0.4,1.9,1,2.7c0.5,0.8,1.2,1.5,2.1,2c0.8,0.5,1.8,0.8,2.8,0.9
		c1,0.1,2-0.1,2.9-0.4l22.7,39.6c-0.7,0.6-1.3,1.3-1.7,2.1c-0.4,0.8-0.6,1.7-0.6,2.6c0,1.6,0.6,3.2,1.7,4.3c1.1,1.2,2.6,1.9,4.2,2.1
		c1.6,0.2,3.2-0.3,4.5-1.3c1.3-1,2.2-2.4,2.4-4h44.7c0.1,1.8,1,3.4,2.3,4.6c1.3,1.2,3,1.9,4.8,1.9c1,0,2-0.2,3-0.6l23,40.1
		c-0.6,0.5-1,1.1-1.4,1.7c-0.3,0.7-0.5,1.4-0.5,2.1c0,0.8,0.1,1.5,0.5,2.2c0.3,0.7,0.8,1.3,1.4,1.8L904,410.1
		c-0.8-0.3-1.7-0.5-2.6-0.5c-1,0.1-1.9,0.4-2.7,0.9c-0.8,0.5-1.5,1.2-2.1,1.9c-0.6,0.8-1,1.7-1.2,2.6c-0.2,0.9-0.2,1.9,0,2.9
		c0.2,0.9,0.6,1.8,1.1,2.6c0.5,0.8,1.2,1.5,2.1,2c0.8,0.5,1.7,0.9,2.7,1s1.9,0.1,2.9-0.1l22.2,38.7c-1,0.8-1.8,2-2.1,3.2
		c-0.4,1.3-0.3,2.6,0.1,3.8c0.4,1.2,1.2,2.3,2.3,3.1c1.1,0.8,2.3,1.2,3.6,1.2c1.6,0,3.1-0.5,4.3-1.5c1.2-1,2-2.4,2.2-4h45.5
		c0.2,1.5,0.9,3,2,4c1.1,1,2.6,1.6,4.2,1.7c0.9,0,1.8-0.1,2.6-0.5l23.5,41.1c-0.5,0.5-0.9,1-1.2,1.6c-0.3,0.6-0.4,1.3-0.4,1.9
		c0,1.3,0.5,2.5,1.3,3.4c0.9,0.9,2,1.5,3.3,1.6c1.2,0.1,2.5-0.3,3.5-1c1-0.8,1.7-1.9,1.9-3.1l46.6,0.2c0.2,1.5,1,2.8,2.1,3.8
		c1.1,1,2.5,1.5,4,1.5c1.7,0,3.3-0.6,4.6-1.8c1.2-1.2,2-2.8,2-4.5c0-1-0.2-1.9-0.6-2.8c-0.4-0.9-1-1.7-1.8-2.3l23.7-40.7
		c0.7,0.3,1.4,0.5,2.1,0.5c1.2,0,2.4-0.4,3.4-1.2c0.9-0.8,1.6-1.9,1.8-3.1l45.7,0.2c0.1,1.1,0.5,2.2,1.1,3.2c0.6,1,1.5,1.8,2.4,2.3
		c1,0.6,2.1,0.9,3.2,0.9s2.3-0.2,3.3-0.7l22.9,40.1c-0.9,0.6-1.5,1.5-1.8,2.5c-0.3,1-0.3,2.1,0,3.1c0.3,1,1,1.9,1.8,2.6
		c0.9,0.6,1.9,1,3,1c1.2,0,2.4-0.4,3.4-1.2c1-0.8,1.6-1.9,1.8-3.1h47.1c0.2,1,0.6,2,1.2,2.8s1.4,1.5,2.4,2c0.9,0.5,2,0.7,3,0.6
		c1,0,2.1-0.3,3-0.8s1.7-1.2,2.2-2.1c0.6-0.9,0.9-1.9,1-2.9c0.1-1-0.1-2.1-0.5-3s-1.1-1.8-1.9-2.5l22.5-38.6c1,0.5,2,0.8,3.1,0.8
		c1,0,1.9-0.1,2.8-0.5c0.9-0.3,1.7-0.9,2.4-1.5c0.7-0.7,1.2-1.4,1.6-2.3c0.4-0.9,0.6-1.8,0.6-2.8s-0.2-1.9-0.5-2.8
		c-0.3-0.9-0.9-1.7-1.5-2.4s-1.4-1.2-2.3-1.6c-0.9-0.4-1.8-0.6-2.8-0.6c-1.1,0-2.2,0.2-3.2,0.7l-23.1-40.3c0.7-0.5,1.2-1.2,1.6-2
		c0.3-0.8,0.5-1.6,0.4-2.5c-0.1-0.8-0.3-1.7-0.8-2.4c-0.4-0.7-1.1-1.3-1.8-1.7c-0.7-0.4-1.6-0.7-2.4-0.7c-0.8,0-1.7,0.2-2.4,0.5
		c-0.8,0.4-1.4,0.9-1.9,1.6c-0.5,0.7-0.8,1.5-0.9,2.3h-48.4c-0.1-1.3-0.7-2.4-1.6-3.3c-0.9-0.9-2.1-1.4-3.4-1.4
		c-0.7,0-1.3,0.1-2,0.4l-23.2-40.6c0.8-0.6,1.4-1.3,1.8-2.2c0.4-0.9,0.7-1.8,0.7-2.8c0-1.6-0.6-3.2-1.7-4.4c-1.1-1.2-2.6-1.9-4.2-2
		c-1.6-0.1-3.2,0.4-4.5,1.4c-1.3,1-2.1,2.5-2.3,4.1h-43.7c-0.1-1.4-0.6-2.7-1.3-3.9s-1.8-2.1-3-2.8c-1.2-0.7-2.6-1-4-1
		c-1.4,0-2.8,0.4-4,1.1c-1.2,0.7-2.2,1.7-3,2.9c-0.7,1.2-1.2,2.5-1.2,3.9c-0.1,1.4,0.2,2.8,0.8,4c0.6,1.3,1.5,2.3,2.7,3.1l-22.1,38
		c-0.8-0.3-1.6-0.5-2.4-0.5c-1.6,0-3.1,0.5-4.3,1.6c-1.2,1-2,2.5-2.2,4.1h-47.1c-0.2-1.2-0.8-2.2-1.7-3c-0.9-0.8-2-1.2-3.2-1.2
		c-0.6,0-1.2,0.1-1.7,0.2l-22.5-39.4c1.1-0.7,2-1.7,2.7-2.9c0.6-1.2,1-2.5,1-3.8c0-1.3-0.3-2.7-0.9-3.9c-0.6-1.2-1.5-2.2-2.6-3
		l22.6-39c0.5,0.2,1.1,0.3,1.7,0.4c1.3,0,2.5-0.4,3.5-1.2c1-0.8,1.6-2,1.8-3.2l47.1,0.2c0.2,1.5,0.9,3,2,4c1.1,1.1,2.6,1.7,4.2,1.7
		c1.4,0,2.7-0.4,3.8-1.1c1.1-0.8,2-1.9,2.4-3.2c0.4-1.3,0.4-2.7,0-4c-0.4-1.3-1.2-2.4-2.4-3.2l22.2-38.1c1,0.5,2.1,0.7,3.2,0.7
		c2,0,4-0.6,5.5-2c1.5-1.3,2.5-3.1,2.8-5.1h45.4c0.2,1.3,0.8,2.5,1.8,3.4c1,0.9,2.3,1.4,3.6,1.4c0.6,0,1.2-0.1,1.7-0.2l22.2,39
		c-1.3,0.7-2.3,1.7-3.1,3c-0.8,1.2-1.2,2.7-1.2,4.1c0,1.4,0.3,2.9,1,4.1c0.7,1.3,1.7,2.3,3,3.1c1.2,0.7,2.7,1.2,4.1,1.2
		c1.4,0,2.9-0.3,4.2-1c1.3-0.7,2.3-1.7,3.1-3c0.8-1.2,1.2-2.7,1.2-4.1h44.4c0.2,1.6,1.1,3,2.3,4c1.2,1,2.8,1.5,4.4,1.4
		c1.6-0.1,3.1-0.8,4.2-1.9c1.1-1.2,1.8-2.7,1.8-4.3c-0.1-0.9-0.4-1.8-0.8-2.7c-0.5-0.8-1.1-1.5-1.9-2.1l22-37.6
		c1.2,0.6,2.6,0.9,4,0.8c1.4-0.1,2.7-0.5,3.9-1.2c1.2-0.7,2.2-1.7,2.8-2.9c0.7-1.2,1.1-2.5,1.1-3.9h42c0.2,2,1.1,3.9,2.6,5.3
		s3.4,2.2,5.5,2.3c1.2,0,2.4-0.2,3.5-0.7l22.3,39c-0.8,0.7-1.4,1.6-1.7,2.6c-0.3,1-0.3,2.1,0.1,3.1c0.3,1,1,1.9,1.8,2.5
		c0.8,0.6,1.9,1,2.9,1c1.2,0,2.4-0.4,3.4-1.2c1-0.8,1.6-1.9,1.8-3.1l45.7,0.2c0.1,2.1,0.9,4.1,2.4,5.5c1.5,1.5,3.5,2.3,5.5,2.4
		c1.1,0,2.3-0.2,3.3-0.6l22.1,38.6c-0.8,0.7-1.4,1.6-1.7,2.6c-0.3,1-0.2,2.1,0.1,3.1s1,1.8,1.8,2.5c0.9,0.6,1.9,0.9,2.9,1
		c1.2,0,2.3-0.3,3.2-1c0.9-0.7,1.6-1.7,1.9-2.9h45.2c0.2,1.3,0.7,2.6,1.5,3.7c0.8,1.1,1.8,2,3,2.6c1.2,0.6,2.6,0.9,3.9,0.8
		c1.3,0,2.7-0.4,3.8-1.1c1.2-0.7,2.2-1.6,2.9-2.8c0.7-1.1,1.1-2.5,1.2-3.8c0.1-1.3-0.2-2.7-0.7-3.9c-0.6-1.2-1.4-2.3-2.5-3.1
		l22.4-38.5c0.6,0.2,1.2,0.4,1.8,0.4c1.4,0,2.7-0.5,3.7-1.4c1-0.9,1.6-2.3,1.6-3.6c0-1.4-0.5-2.7-1.4-3.7c-0.9-1-2.2-1.6-3.6-1.6
		c-0.6,0-1.2,0.1-1.7,0.3l-22.4-39.2c1.3-1,2.3-2.4,2.8-4c0.5-1.6,0.5-3.3,0-4.9c-0.5-1.6-1.5-3-2.8-4.1c-1.3-1-2.9-1.7-4.6-1.8
		c-2.1,0-4.1,0.7-5.7,2.1c-1.6,1.4-2.5,3.3-2.7,5.4l-45.4-0.2c-0.2-1.2-0.8-2.2-1.7-3c-0.9-0.8-2.1-1.2-3.2-1.2
		c-0.6,0-1.3,0.1-1.9,0.3l-23.6-41.1c0.7-0.5,1.3-1.2,1.8-2c0.4-0.8,0.7-1.7,0.7-2.6c0-1.5-0.5-3-1.5-4.1c-1-1.1-2.4-1.8-3.9-2
		c-1.5-0.1-3,0.3-4.2,1.2c-1.2,0.9-2,2.3-2.2,3.8h-47.5c-0.1-1.2-0.7-2.4-1.6-3.2c-0.9-0.8-2.1-1.3-3.4-1.3c-0.7,0-1.5,0.1-2.1,0.4
		l-22.4-39c1.1-0.8,2.1-1.8,2.7-3c0.6-1.2,1-2.5,1-3.9c0-1.4-0.3-2.7-1-3.9c-0.6-1.2-1.6-2.2-2.7-3l22.4-38.5
		c0.6,0.3,1.2,0.4,1.8,0.4c1.3,0,2.6-0.5,3.6-1.4c1-0.9,1.6-2.1,1.7-3.5h47.5c0.1,1,0.5,1.9,1.1,2.7c0.6,0.8,1.3,1.4,2.2,1.9
		c0.9,0.4,1.9,0.6,2.8,0.6c1,0,1.9-0.3,2.8-0.8c0.8-0.5,1.6-1.2,2.1-2c0.5-0.8,0.8-1.8,0.9-2.8c0.1-1-0.1-2-0.5-2.9
		c-0.4-0.9-1-1.7-1.8-2.3l23.8-40.9c0.5,0.2,1,0.3,1.5,0.3c1.3,0.1,2.6-0.3,3.6-1.2s1.7-2,1.8-3.4v-1.4c-0.2-1.2-0.7-2.4-1.7-3.2
		c-0.9-0.8-2.1-1.3-3.3-1.4c-0.6,0-1.2,0.1-1.8,0.3l-24-41.8c0.6-0.5,1.1-1.1,1.4-1.8c0.3-0.7,0.5-1.5,0.5-2.2
		c0-0.8-0.2-1.5-0.5-2.2c-0.3-0.7-0.8-1.3-1.4-1.8l-1.2-0.7c-0.6-0.3-1.2-0.4-1.9-0.4c-1.2,0-2.4,0.5-3.4,1.3
		c-0.9,0.8-1.5,2-1.7,3.2h-48.3c-0.2-1.3-0.8-2.5-1.8-3.4c-1-0.8-2.3-1.3-3.6-1.2c-1.3,0.1-2.5,0.7-3.4,1.7c-0.9,1-1.4,2.3-1.3,3.6
		c0,0.8,0.1,1.5,0.5,2.2c0.3,0.7,0.8,1.3,1.4,1.8l-23.5,40.4c-0.8-0.4-1.7-0.6-2.5-0.6c-1.6,0-3.2,0.6-4.4,1.7
		c-1.2,1.1-1.9,2.6-2.1,4.2l-43.7-0.2c-0.2-2-1.1-3.8-2.6-5.2c-1.5-1.4-3.4-2.1-5.4-2.2c-1.2,0-2.4,0.2-3.6,0.7l-22.4-39.3
		c0.6-0.5,1-1.1,1.4-1.7c0.3-0.7,0.5-1.4,0.5-2.1c0.1-1.3-0.4-2.6-1.2-3.6c-0.8-1-2.1-1.6-3.4-1.8c-1.3-0.1-2.6,0.2-3.7,1
		c-1,0.8-1.8,2-1.9,3.3H1201c-0.1-1.1-0.5-2.1-1.1-3c-0.6-0.9-1.4-1.6-2.4-2.1c-0.9-0.5-2-0.7-3.1-0.7c-1.1,0-2.1,0.3-3,0.8
		c-0.9,0.5-1.7,1.3-2.3,2.2c-0.6,0.9-0.9,1.9-1,3c-0.1,1.1,0.1,2.1,0.6,3.1c0.4,1,1.1,1.8,1.9,2.5l-23.6,40.3
		c-0.5-0.2-1.1-0.3-1.6-0.3c-1.3,0.1-2.5,0.6-3.4,1.6c-0.9,0.9-1.4,2.2-1.5,3.5c0,1.3,0.4,2.6,1.3,3.5c0.9,1,2.1,1.6,3.4,1.7
		c0.6,0,1.2-0.1,1.7-0.3l24,42c-0.7,0.5-1.2,1.2-1.5,2c-0.3,0.8-0.5,1.6-0.4,2.4c0.1,0.8,0.3,1.6,0.8,2.3c0.5,0.7,1.1,1.3,1.8,1.7
		c0.7,0.4,1.6,0.6,2.4,0.7c0.8,0,1.7-0.2,2.4-0.5c0.8-0.4,1.4-0.9,1.9-1.6s0.8-1.5,0.9-2.3h46.9c0.2,1.5,0.9,2.9,2.1,4
		s2.6,1.6,4.1,1.6c0.9,0,1.8-0.2,2.6-0.5l23.3,40.8c-0.6,0.5-1.1,1.1-1.5,1.8c-0.3,0.7-0.5,1.5-0.5,2.3c0,0.8,0.2,1.6,0.5,2.3
		c0.3,0.7,0.9,1.3,1.5,1.8l-22.8,39c-1-0.5-2.2-0.7-3.3-0.8c-2.1,0-4.1,0.7-5.7,2.1c-1.5,1.4-2.5,3.3-2.7,5.4H1200
		c-0.2-1.5-0.9-2.9-2.1-3.9c-1.1-1-2.6-1.6-4.1-1.6c-0.9,0-1.7,0.1-2.5,0.5l-22.5-39.3c1.1-0.8,2-1.9,2.4-3.2c0.5-1.3,0.5-2.7,0.1-4
		c-0.4-1.3-1.2-2.4-2.3-3.3c-1.1-0.8-2.4-1.3-3.8-1.3c-1.6,0-3.1,0.5-4.3,1.5c-1.2,1-2,2.4-2.2,4l-44.1-0.2
		c-0.1-1.4-0.5-2.7-1.3-3.9c-0.8-1.2-1.8-2.1-3-2.8c-1.2-0.7-2.6-1-4-1s-2.8,0.4-4,1.1c-1.2,0.7-2.2,1.7-3,2.9
		c-0.7,1.2-1.2,2.6-1.2,3.9c-0.1,1.4,0.2,2.8,0.9,4c0.6,1.3,1.5,2.3,2.7,3.1l-22.8,39c-0.6-0.2-1.2-0.4-1.8-0.4
		c-1.3-0.1-2.5,0.4-3.5,1.2c-0.9,0.9-1.5,2.1-1.6,3.3h-48.5c-0.2-1.3-0.8-2.5-1.8-3.4c-1-0.9-2.2-1.4-3.6-1.4
		c-0.7,0-1.4,0.1-2.1,0.4s-1.3,0.7-1.8,1.2c-0.5,0.5-0.9,1.1-1.2,1.8c-0.3,0.7-0.5,1.4-0.5,2.1c0,0.9,0.2,1.7,0.6,2.5
		c0.4,0.8,0.9,1.5,1.6,2l-22.9,39.3c-0.9-0.4-1.8-0.6-2.8-0.6c-1.8-0.1-3.6,0.6-5,1.8c-1.4,1.2-2.2,2.9-2.3,4.8h-44
		c-0.1-1.1-0.4-2.2-1-3.1c-0.6-0.9-1.4-1.7-2.4-2.2c-1-0.5-2.1-0.8-3.2-0.7s-2.2,0.3-3.1,0.9l-23.3-40.8c0.6-0.5,1.1-1.2,1.5-2
		c0.3-0.8,0.5-1.6,0.4-2.4c-0.1-0.8-0.3-1.6-0.8-2.3c-0.4-0.7-1.1-1.3-1.8-1.7c-0.7-0.4-1.5-0.7-2.4-0.7c-0.8,0-1.7,0.1-2.4,0.5
		c-0.8,0.3-1.4,0.9-1.9,1.5c-0.5,0.7-0.9,1.4-1,2.3h-44.7c-0.1-1.3-0.5-2.6-1.3-3.8c-0.7-1.1-1.7-2.1-2.9-2.7c-1.2-0.6-2.5-1-3.8-1
		c-1.3,0-2.7,0.3-3.9,0.9l-22.7-39.6c0.5-0.5,1-1.1,1.3-1.7c0.3-0.7,0.5-1.4,0.5-2.1c0-0.8-0.2-1.5-0.5-2.2
		c-0.3-0.7-0.8-1.3-1.4-1.8l24.7-42.5c0.6,0.2,1.1,0.3,1.7,0.4c1.2,0,2.5-0.4,3.4-1.2c1-0.8,1.6-1.9,1.8-3.1h46.7
		c0.2,1.6,1.1,3,2.3,4.1c1.3,1,2.9,1.5,4.5,1.4s3.1-0.8,4.2-2c1.1-1.2,1.7-2.7,1.7-4.3c0-1-0.3-1.9-0.7-2.7
		c-0.4-0.8-1.1-1.6-1.9-2.1l23.6-40.5c0.6,0.2,1.2,0.4,1.8,0.4c1.3,0,2.5-0.4,3.4-1.2c1-0.8,1.6-1.9,1.8-3.2v-1.4
		c-0.1-1.2-0.7-2.4-1.6-3.2c-0.9-0.8-2.1-1.3-3.3-1.3c-0.7,0-1.3,0.1-2,0.4l-22.8-40.1c0.9-0.6,1.7-1.5,2.3-2.5
		c0.5-1,0.8-2.1,0.9-3.3c0-1.2-0.2-2.3-0.7-3.4s-1.3-2-2.2-2.6l-1.2-0.7c-1.1-0.5-2.2-0.8-3.4-0.8c-1.2,0-2.3,0.4-3.4,1
		c-1,0.6-1.9,1.4-2.5,2.5c-0.6,1-1,2.2-1,3.4h-45c-0.2-1.6-1.1-3-2.3-4s-2.8-1.5-4.4-1.4c-1.6,0.1-3.1,0.8-4.2,2
		c-1.1,1.2-1.8,2.7-1.8,4.3c0,1,0.2,2,0.6,2.9c0.4,0.9,1.1,1.7,1.9,2.3l-22.1,38c-1-0.4-2.1-0.7-3.2-0.7c-2,0-4,0.7-5.5,2
		c-1.5,1.3-2.5,3.1-2.8,5.1l-43.2-0.2c-0.2-1.7-1.1-3.3-2.4-4.5c-1.3-1.2-3-1.8-4.7-1.8c-0.9,0-1.9,0.2-2.7,0.5l-21.7-38
		c1.4-0.8,2.5-2,3.1-3.5c0.6-1.5,0.7-3.1,0.2-4.7c-0.5-1.5-1.4-2.9-2.7-3.8s-2.9-1.4-4.5-1.3c-1.8,0-3.5,0.6-4.8,1.7
		c-1.4,1.1-2.2,2.7-2.5,4.5h-45.4c-0.1-1.6-0.9-3-2-4.1c-1.1-1.1-2.7-1.7-4.2-1.7c-0.9,0-1.7,0.1-2.6,0.5l-1.2,0.7
		c-0.9,0.6-1.6,1.4-2.1,2.3c-0.5,0.9-0.8,2-0.8,3c0,1,0.3,2.1,0.8,3c0.5,0.9,1.2,1.7,2.1,2.3l-22.9,39.3c-0.7-0.3-1.5-0.5-2.3-0.5
		c-1.6,0-3.2,0.5-4.4,1.6c-1.2,1.1-2,2.6-2.1,4.2v1.4c0.2,1.5,0.9,3,2,4c1.1,1,2.6,1.6,4.2,1.7c0.8,0,1.7-0.1,2.5-0.4l22.8,39.4
		c-0.8,0.6-1.4,1.3-1.8,2.2c-0.4,0.8-0.7,1.8-0.7,2.7c-0.1,1.6,0.5,3.2,1.6,4.5c1.1,1.2,2.6,2,4.2,2.1c1.6,0.1,3.3-0.3,4.5-1.4
		c1.3-1,2.1-2.5,2.4-4.1l46.4,0.2c0.1,0.8,0.4,1.6,0.9,2.3c0.5,0.7,1.1,1.3,1.8,1.7c0.7,0.4,1.5,0.7,2.3,0.8c0.8,0.1,1.6,0,2.4-0.3
		l22.9,40.1c-0.9,0.6-1.7,1.5-2.2,2.5c-0.5,1-0.8,2.1-0.8,3.2c0,1.1,0.2,2.3,0.7,3.3s1.2,1.9,2.2,2.6l-22.3,38.3
		c-0.7-0.3-1.5-0.4-2.2-0.5c-1.6,0-3.2,0.6-4.4,1.7s-2,2.6-2.1,4.2h-47.2c-0.1-1.3-0.7-2.4-1.6-3.3c-0.9-0.9-2.1-1.4-3.4-1.4
		c-0.7,0-1.4,0.1-2,0.4l-23.4-40.8c1.1-0.8,1.9-1.9,2.3-3.2c0.4-1.3,0.4-2.6,0-3.9c-0.4-1.3-1.2-2.4-2.2-3.2
		c-1.1-0.8-2.3-1.3-3.7-1.3c-1.6,0-3.2,0.5-4.4,1.6c-1.2,1.1-2,2.6-2.1,4.2h-46.7c-0.1-0.8-0.4-1.6-0.9-2.3
		c-0.5-0.7-1.1-1.2-1.9-1.6s-1.6-0.6-2.4-0.5c-0.8,0-1.7,0.2-2.4,0.7c-0.7,0.4-1.4,1-1.8,1.7c-0.5,0.7-0.7,1.5-0.8,2.3
		c-0.1,0.8,0,1.7,0.4,2.5c0.3,0.8,0.8,1.5,1.5,2L552.9,209c-0.5-0.2-1-0.2-1.5-0.2c-1.2-0.1-2.4,0.3-3.3,1c-1,0.7-1.6,1.7-1.9,2.9
		h-46.5c-0.1-1.9-1-3.7-2.5-4.9c-1.5-1.2-3.3-1.9-5.2-1.7c-1.9,0.1-3.7,1-4.9,2.5c-1.2,1.5-1.9,3.3-1.7,5.2c0,1.1,0.2,2.2,0.7,3.2
		c0.5,1,1.1,1.9,2,2.6l-21.8,37.4c-0.9-0.4-1.8-0.6-2.8-0.6c-0.9,0-1.9,0.1-2.7,0.4c-0.9,0.3-1.7,0.8-2.4,1.5
		c-0.7,0.6-1.2,1.4-1.6,2.3c-0.4,0.9-0.6,1.8-0.6,2.7H410c-0.2-1.2-0.9-2.3-1.9-3.2c-1-0.8-2.2-1.3-3.4-1.3c-0.7,0-1.3,0.1-2,0.3
		l-22.1-39.2c1.1-0.7,1.9-1.7,2.6-2.8c0.6-1.1,1-2.4,1-3.7c0.1-2.1-0.6-4.2-2-5.8c-1.4-1.6-3.4-2.6-5.5-2.8
		c-2.1-0.2-4.2,0.5-5.9,1.8c-1.7,1.3-2.7,3.3-3,5.4h-43c-0.1-1.9-1-3.7-2.4-4.9c-1.4-1.3-3.3-1.9-5.2-1.8c-1.9,0.1-3.7,1-4.9,2.4
		c-1.3,1.4-1.9,3.3-1.8,5.2c0,1.1,0.2,2.2,0.6,3.2c0.5,1,1.1,1.9,2,2.5L290,258.2c-0.6-0.3-1.3-0.4-1.9-0.4
		c-1.3-0.1-2.6,0.4-3.6,1.2c-1,0.8-1.6,2-1.8,3.3h-46.5c-0.1-1.8-1-3.4-2.3-4.6c-1.3-1.2-3-1.9-4.8-1.9c-1.1,0-2.2,0.2-3.2,0.7
		L204,218.5c1-0.6,1.8-1.5,2.3-2.5c0.6-1,0.9-2.2,0.9-3.3c0.1-0.9,0-1.9-0.3-2.8c-0.3-0.9-0.8-1.7-1.4-2.4c-0.6-0.7-1.4-1.3-2.2-1.7
		c-0.8-0.4-1.7-0.7-2.7-0.7c-1.9-0.1-3.7,0.5-5.2,1.7c-0.7,0.6-1.3,1.4-1.7,2.2c-0.4,0.8-0.7,1.7-0.7,2.7h-46.1
		c-0.1-1.2-0.7-2.4-1.7-3.2c-0.9-0.8-2.1-1.3-3.3-1.3c-0.8,0-1.6,0.2-2.3,0.5l-22.5-39c1.1-0.8,2-1.8,2.7-2.9c0.6-1.2,1-2.5,1-3.8
		c0-1.3-0.3-2.7-1-3.8c-0.6-1.2-1.5-2.2-2.7-2.9l22.6-39c0.7,0.3,1.5,0.4,2.2,0.3c0.8-0.1,1.5-0.3,2.2-0.6c0.7-0.4,1.2-0.9,1.7-1.5
		c0.4-0.6,0.7-1.3,0.9-2.1c0.1-0.7,0.1-1.5-0.1-2.3c-0.2-0.7-0.5-1.4-1-2c-0.5-0.6-1.1-1.1-1.8-1.4c-0.7-0.3-1.4-0.5-2.2-0.5
		c-0.7,0-1.4,0.1-2,0.4L115.4,65c0.7-0.5,1.2-1.1,1.6-1.9c0.4-0.7,0.6-1.6,0.6-2.4c0-1.4-0.5-2.8-1.4-3.9c-1-1.1-2.3-1.7-3.7-1.8
		c-1.4-0.1-2.8,0.4-3.9,1.3c-1.1,0.9-1.8,2.2-1.9,3.6H60.9c-0.2-1.1-0.7-2.1-1.4-3c-0.7-0.9-1.6-1.6-2.6-2c-1-0.4-2.1-0.6-3.3-0.6
		c-1.1,0.1-2.2,0.4-3.2,1c-1,0.6-1.8,1.4-2.4,2.3c-0.6,0.9-1,2-1.1,3.1c-0.1,1.1,0.1,2.2,0.5,3.3c0.4,1,1.1,2,1.9,2.7l-22.9,39.8
		c-0.6-0.2-1.2-0.4-1.8-0.4c-1.4,0-2.7,0.5-3.7,1.4c-1,0.9-1.6,2.3-1.6,3.6c0,1.4,0.5,2.7,1.4,3.7c1,1,2.3,1.6,3.6,1.6
		c0.7,0,1.4-0.1,2-0.4l22.9,39.6c-1,0.7-1.7,1.6-2.3,2.6c-0.5,1-0.8,2.2-0.8,3.4c0,1.2,0.3,2.3,0.9,3.3c0.6,1,1.4,1.9,2.4,2.5
		l-22,38.2c-1-0.5-2.2-0.7-3.3-0.6c-1.1,0.1-2.2,0.4-3.2,1c-1,0.6-1.8,1.4-2.4,2.4c-0.6,1-1,2.1-1,3.2h-44.5c-0.2-1.8-1-3.4-2.3-4.6
		c-1.3-1.2-3-1.9-4.8-1.9c-1.1,0-2.1,0.2-3.1,0.6l-22.5-39.2c0.7-0.6,1.2-1.2,1.6-2c0.4-0.8,0.6-1.7,0.6-2.5c0-1.5-0.6-3-1.6-4.2
		c-1-1.1-2.5-1.8-4-2c-1.5-0.1-3.1,0.3-4.3,1.3c-1.2,1-2,2.3-2.2,3.9h-47c-0.2-1.2-0.8-2.2-1.7-3c-0.9-0.8-2-1.2-3.2-1.2
		c-1.4,0-2.7,0.5-3.7,1.5c-1,0.9-1.6,2.2-1.6,3.6c0,0.8,0.1,1.5,0.5,2.2c0.3,0.7,0.8,1.3,1.4,1.8l-23.1,40.1
		c-0.8-0.3-1.6-0.5-2.5-0.5c-1,0-1.9,0.1-2.8,0.5c-0.9,0.3-1.7,0.9-2.4,1.5c-1.4,1.3-2.2,3.2-2.2,5.1c0,1.9,0.7,3.8,2,5.2
		C-154.6,219.2-152.8,220-150.9,220z M289.4,460.2c-0.7-0.3-1.4-0.5-2.2-0.5c-1.5,0-2.9,0.5-4,1.4s-1.9,2.2-2.1,3.7l-45-0.2
		c-0.1-1.8-0.9-3.5-2.2-4.7c-1.3-1.2-3.1-1.9-4.9-1.9c-1.2,0-2.4,0.2-3.5,0.8L203,419.4c0.8-0.6,1.4-1.3,1.9-2.2
		c0.4-0.9,0.7-1.8,0.7-2.8c0-1-0.2-1.9-0.7-2.8c-0.4-0.9-1.1-1.6-1.9-2.2l23.4-40.3c0.6,0.3,1.3,0.4,2,0.4c1.3,0,2.6-0.5,3.6-1.4
		c1-0.9,1.6-2.1,1.7-3.5l48,0.3c0.1,0.9,0.5,1.8,1,2.6c0.5,0.8,1.2,1.4,2.1,1.9c0.8,0.5,1.8,0.7,2.7,0.8c1,0,1.9-0.1,2.8-0.5
		l23.4,41.3c-0.6,0.5-1.1,1.1-1.4,1.7c-0.3,0.7-0.5,1.4-0.5,2.2c0,0.8,0.1,1.5,0.5,2.2c0.3,0.7,0.8,1.3,1.4,1.8L289.4,460.2z
		 M400.6,369.5l-22.8,39.2c-0.8-0.3-1.6-0.5-2.4-0.5c-1.8-0.1-3.6,0.5-4.9,1.7c-1.4,1.2-2.2,2.8-2.4,4.6H322
		c-0.2-1.2-0.8-2.3-1.7-3.1c-0.9-0.8-2.1-1.3-3.3-1.3c-0.7,0-1.5,0.1-2.1,0.4l-23.6-41.3c0.7-0.6,1.3-1.3,1.8-2.1
		c0.4-0.8,0.7-1.7,0.7-2.6c0-1-0.2-2-0.7-2.8c-0.4-0.9-1.1-1.6-1.9-2.2l22.9-39.2c0.9,0.4,1.9,0.6,2.8,0.7c1.8,0,3.5-0.6,4.9-1.8
		c1.4-1.2,2.2-2.8,2.5-4.6h44.4c0.1,1.8,0.9,3.5,2.2,4.7c1.3,1.2,3,1.9,4.8,1.9c1,0,1.9-0.1,2.8-0.5l22.3,39
		c-0.8,0.6-1.4,1.3-1.8,2.2c-0.4,0.9-0.7,1.8-0.7,2.8c0,1,0.2,1.9,0.7,2.8s1.1,1.6,1.8,2.2L400.6,369.5z M399.8,472l-23.1,39.8
		c-0.5-0.2-1.1-0.3-1.7-0.4c-1.3,0-2.5,0.4-3.4,1.2c-1,0.8-1.6,1.9-1.8,3.2h-46.1c-0.1-1.8-0.8-3.6-2.2-4.9c-1.3-1.3-3.1-2-4.9-2
		c-1.2,0-2.5,0.2-3.5,0.8l-22.3-39c0.8-0.6,1.4-1.3,1.8-2.2c0.4-0.9,0.6-1.8,0.6-2.7c0-1-0.2-1.9-0.6-2.7c-0.4-0.9-1-1.6-1.8-2.2
		l23.9-41.1c0.6,0.3,1.3,0.5,2.1,0.5c1.3,0,2.5-0.4,3.5-1.2c1-0.8,1.6-2,1.8-3.3H368c0,1.2,0.4,2.3,0.9,3.3c0.6,1,1.4,1.9,2.4,2.5
		c1,0.6,2.1,1,3.3,1.1c1.2,0.1,2.3-0.1,3.4-0.6l22,38.4c-0.9,0.6-1.7,1.5-2.2,2.5c-0.5,1-0.8,2.1-0.8,3.2c0,1.1,0.2,2.2,0.7,3.2
		S398.9,471.3,399.8,472L399.8,472z M491.2,421.1c1.3,0,2.6-0.4,3.6-1.3c1-0.9,1.6-2.1,1.7-3.4h48.4c0.1,1.3,0.6,2.5,1.6,3.4
		c0.9,0.9,2.2,1.4,3.5,1.4c0.8,0,1.6-0.2,2.3-0.5l22.7,39.7c-0.9,0.7-1.6,1.5-2.1,2.5c-0.5,1-0.8,2.1-0.8,3.1c0,1.2,0.2,2.4,0.7,3.4
		c0.5,1.1,1.3,2,2.3,2.6l-23.2,39.8c-0.6-0.3-1.3-0.5-2-0.5c-1.3,0-2.6,0.5-3.6,1.4c-1,0.9-1.6,2.2-1.6,3.5l-47.1-0.2
		c0-1.6-0.7-3.1-1.8-4.2c-1.1-1.1-2.6-1.7-4.2-1.8c-1,0-2,0.2-2.8,0.6l-22.7-39.4c0.8-0.5,1.4-1.3,1.8-2.1c0.4-0.8,0.7-1.8,0.7-2.7
		c0-1-0.2-2-0.7-2.9c-0.5-0.9-1.2-1.7-2-2.2l23.7-40.7C490,421,490.6,421.1,491.2,421.1z M488.6,411.6c-0.7,0.4-1.3,1-1.8,1.8
		c-0.4,0.7-0.7,1.6-0.7,2.4c0,0.8,0.1,1.7,0.5,2.5c0.4,0.8,0.9,1.4,1.6,1.9l-23.7,40.6c-0.6-0.3-1.3-0.4-2-0.4c-1.5,0-2.9,0.5-4,1.4
		c-1.1,0.9-1.9,2.3-2.1,3.7l-45.1-0.2c-0.1-1.1-0.5-2.2-1.2-3.1c-0.6-0.9-1.5-1.7-2.5-2.3c-1-0.5-2.1-0.8-3.2-0.9
		c-1.1,0-2.3,0.2-3.3,0.7l-21.9-38.3c1-0.7,1.9-1.6,2.4-2.6s0.9-2.3,0.8-3.5c0-1.2-0.4-2.4-1-3.4c-0.6-1-1.5-1.9-2.5-2.5l22.8-39
		c0.7,0.3,1.5,0.5,2.3,0.5c1.5,0,3-0.5,4.1-1.5c1.1-1,1.9-2.3,2.1-3.8l47.4,0.2c0.1,0.8,0.4,1.6,0.8,2.2c0.4,0.7,1,1.2,1.7,1.6
		c0.7,0.4,1.5,0.6,2.3,0.7c0.8,0.1,1.6-0.1,2.3-0.4L488.6,411.6z M751.3,360.8c-0.8,0.6-1.5,1.3-1.9,2.2c-0.5,0.9-0.7,1.9-0.7,2.9
		c0,1,0.2,2.1,0.7,3c0.5,0.9,1.1,1.7,2,2.4l-23.6,40.6c-0.6-0.3-1.3-0.4-2-0.4c-1.3,0-2.5,0.4-3.5,1.2c-1,0.8-1.6,2-1.7,3.2h-46.1
		c0-1.2-0.3-2.4-0.9-3.5c-0.6-1.1-1.5-1.9-2.5-2.6c-1-0.6-2.2-1-3.5-1c-1.2,0-2.4,0.3-3.5,0.8L641.2,370c0.7-0.5,1.3-1.1,1.7-1.8
		c0.4-0.7,0.6-1.6,0.6-2.4c0-0.8-0.2-1.7-0.6-2.4c-0.4-0.7-1-1.4-1.7-1.9l24.2-41.6c0.5,0.2,1.1,0.3,1.6,0.3c1.2,0,2.4-0.4,3.4-1.2
		c0.9-0.8,1.6-1.9,1.8-3.1h46.6c0.2,1.7,1,3.4,2.3,4.5c1.3,1.2,3,1.8,4.7,1.9c1,0,2-0.2,2.9-0.5L751.3,360.8z M1190.9,423
		c0.5,0.2,1.1,0.3,1.6,0.3c1.2,0,2.4-0.4,3.4-1.2c1-0.8,1.6-1.9,1.8-3.1h48.5c0.1,0.8,0.4,1.6,0.8,2.2c0.4,0.7,1,1.2,1.7,1.6
		c0.7,0.4,1.5,0.6,2.3,0.7c0.8,0,1.6-0.1,2.3-0.4l23.1,40.3c-0.9,0.6-1.7,1.5-2.2,2.5c-0.5,1-0.8,2.1-0.8,3.2c0,1.1,0.2,2.2,0.7,3.3
		c0.5,1,1.2,1.9,2.1,2.6l-22.3,38.9c-0.9-0.4-1.8-0.7-2.8-0.7c-1.7,0-3.3,0.6-4.5,1.7c-1.2,1.1-2,2.7-2,4.4l-47-0.2
		c-0.1-1.3-0.6-2.4-1.5-3.3c-0.9-0.9-2.1-1.4-3.3-1.5c-0.7,0-1.4,0.1-2,0.4l-22.9-40c1-0.6,1.8-1.5,2.4-2.5c0.6-1,0.9-2.2,0.9-3.3
		c0-1.2-0.2-2.3-0.8-3.4c-0.5-1-1.3-1.9-2.3-2.6L1190.9,423z M1101.7,374.7c1.2,0.6,2.5,0.9,3.9,0.9c1.3,0,2.6-0.4,3.8-1.1
		c1.2-0.7,2.1-1.6,2.9-2.7s1.2-2.4,1.2-3.7h43.7c0.1,1.6,0.8,3.1,2,4.1c1.2,1.1,2.7,1.7,4.3,1.7c1,0,2-0.2,2.8-0.6l23.2,40.6
		c-0.7,0.5-1.2,1.1-1.6,1.8s-0.6,1.5-0.6,2.4c0,0.8,0.2,1.6,0.6,2.4s0.9,1.4,1.6,1.8l-23.1,39.7c-0.9-0.4-1.9-0.7-2.9-0.7
		c-1.9,0-3.7,0.6-5.1,1.9c-1.4,1.3-2.2,3-2.4,4.8h-45.6c-0.1-1.3-0.7-2.4-1.6-3.3c-0.9-0.9-2.1-1.4-3.4-1.4c-0.8,0-1.7,0.2-2.4,0.6
		l-23.3-40.8c0.8-0.6,1.5-1.4,1.9-2.3c0.4-0.9,0.7-1.9,0.7-2.9c0-1-0.2-2-0.7-2.9c-0.5-0.9-1.1-1.7-1.9-2.3L1101.7,374.7z
		 M1017.2,423.1c1.3,0,2.6-0.4,3.6-1.3c1-0.9,1.6-2.2,1.7-3.5h47c0.1,1,0.4,2,0.9,2.9c0.5,0.9,1.3,1.6,2.2,2.1
		c0.9,0.5,1.9,0.8,2.9,0.9c1,0.1,2-0.1,3-0.5l23.4,40.9c-0.5,0.5-0.9,1.1-1.2,1.8c-0.3,0.7-0.4,1.4-0.4,2.1c0,0.7,0.2,1.4,0.5,2.1
		c0.3,0.6,0.8,1.2,1.3,1.7l-23.7,40.7c-0.9-0.4-1.8-0.7-2.8-0.7c-1.7,0-3.3,0.6-4.5,1.8c-1.2,1.2-2,2.7-2,4.4h-46.5
		c-0.2-1.2-0.7-2.3-1.6-3.1c-0.9-0.8-2.1-1.3-3.3-1.3c-0.8,0-1.6,0.2-2.4,0.6l-23.5-41c0.8-0.6,1.5-1.4,2-2.2
		c0.5-0.9,0.7-1.9,0.8-2.9c0-1-0.2-2-0.7-2.9c-0.5-0.9-1.1-1.7-1.9-2.3l23.4-40.3c0.6,0.3,1.2,0.5,1.9,0.5H1017.2z M1014.5,413.6
		c-0.7,0.5-1.2,1.1-1.6,1.8c-0.4,0.7-0.6,1.5-0.6,2.3c0,0.8,0.1,1.6,0.5,2.4c0.3,0.7,0.9,1.4,1.5,1.9l-23.4,40.3
		c-0.8-0.4-1.6-0.5-2.4-0.6c-1.6,0-3.2,0.6-4.4,1.6c-1.2,1.1-2,2.6-2.1,4.2h-45.4c-0.1-1.6-0.8-3.1-2-4.2c-1.2-1.1-2.7-1.7-4.3-1.8
		c-1.1,0-2.1,0.2-3,0.7L905,423.6c1-0.6,1.9-1.5,2.5-2.6c0.6-1.1,0.9-2.2,0.9-3.5c0-1.2-0.3-2.4-0.9-3.5c-0.6-1.1-1.4-1.9-2.5-2.6
		l23.3-40c0.6,0.3,1.3,0.4,2,0.5c1.3,0,2.5-0.4,3.4-1.2c1-0.8,1.6-1.9,1.8-3.2h45.1c0.2,2,1.1,3.9,2.6,5.3c1.5,1.4,3.4,2.2,5.4,2.2
		c1.2,0,2.4-0.3,3.5-0.8L1014.5,413.6z M1456.3,272.9c1.3,0,2.6-0.4,3.5-1.3c1-0.9,1.6-2.1,1.7-3.4l45.3,0.2c0.1,2.1,1,4,2.5,5.4
		c1.5,1.4,3.5,2.2,5.5,2.3c1.2,0,2.4-0.2,3.5-0.8l22.4,39c-0.7,0.5-1.2,1.1-1.6,1.8c-0.4,0.7-0.6,1.5-0.6,2.4c0,0.8,0.2,1.6,0.5,2.4
		s0.9,1.4,1.5,1.9l-22.4,38.5c-1.1-0.6-2.3-0.9-3.6-1c-2.2,0-4.3,0.8-5.8,2.3c-1.6,1.5-2.5,3.5-2.6,5.7h-45c0-1.3-0.6-2.6-1.5-3.5
		c-0.9-0.9-2.2-1.5-3.5-1.5c-0.8,0-1.6,0.1-2.3,0.5l-22-38.5c1.2-0.7,2.3-1.8,3-3c0.7-1.2,1.1-2.7,1.1-4.1c0-1.4-0.4-2.8-1.1-4.1
		c-0.7-1.2-1.8-2.3-3-3l22.5-38.6C1455,272.7,1455.7,272.9,1456.3,272.9z M1367.1,221.1c0.6,0.2,1.3,0.4,1.9,0.4
		c1.2,0,2.4-0.4,3.4-1.2c1-0.8,1.6-1.9,1.8-3.2h47.5c0.1,1.5,0.8,2.9,1.8,3.9c1.1,1,2.5,1.6,4,1.6c0.9,0,1.7-0.1,2.5-0.5l23.5,41.1
		c-0.6,0.5-1.2,1.1-1.6,1.8c-0.4,0.7-0.6,1.5-0.6,2.3s0.1,1.6,0.5,2.3s0.8,1.4,1.5,1.9l-22.5,38.7c-0.9-0.4-1.9-0.6-2.9-0.6
		c-2.1,0-4.1,0.8-5.6,2.2c-1.5,1.4-2.5,3.4-2.6,5.4H1374c-0.1-1.3-0.7-2.4-1.6-3.3c-0.9-0.9-2.1-1.4-3.4-1.4c-0.8,0-1.5,0.1-2.2,0.5
		l-22.3-39c1.1-0.8,2-1.8,2.7-3c0.6-1.2,1-2.5,1-3.9c0-1.4-0.3-2.7-1-3.9c-0.6-1.2-1.6-2.2-2.7-3L1367.1,221.1z M1367.6,18.8
		c0.6,0.2,1.2,0.4,1.9,0.4c1.3,0,2.6-0.4,3.5-1.3c1-0.9,1.6-2.1,1.7-3.4l48.4,0.2c0.2,1.2,0.8,2.3,1.7,3.2c0.9,0.8,2.1,1.3,3.3,1.3
		c0.7,0,1.4-0.1,2.1-0.4l23.9,41.7c-0.7,0.5-1.2,1.1-1.6,1.8s-0.6,1.6-0.6,2.4c0,0.8,0.2,1.7,0.6,2.4s0.9,1.4,1.6,1.8l-23.9,40.9
		c-0.7-0.3-1.5-0.5-2.3-0.5c-1.5,0-2.9,0.5-4.1,1.5c-1.1,1-1.8,2.4-2,3.9l-47.7-0.2c-0.2-1.1-0.8-2.2-1.7-2.9
		c-0.9-0.8-2-1.2-3.2-1.2c-0.6,0-1.1,0.1-1.7,0.3L1344,69.5c0.8-0.6,1.4-1.4,1.9-2.2c0.4-0.9,0.7-1.9,0.7-2.8c0-1-0.2-2-0.7-2.8
		c-0.4-0.9-1.1-1.7-1.9-2.2L1367.6,18.8z M1252.7,108.1c-1.6,0-3.2,0.6-4.4,1.7c-1.2,1.1-2,2.6-2.1,4.2h-46.8
		c-0.1-0.8-0.4-1.5-0.8-2.2c-0.4-0.7-1-1.2-1.7-1.6c-0.7-0.4-1.5-0.6-2.2-0.7c-0.8,0-1.6,0.1-2.3,0.4l-23.9-41.8
		c0.7-0.5,1.3-1.1,1.7-1.9c0.4-0.7,0.6-1.6,0.6-2.4c0-0.8-0.2-1.7-0.6-2.4c-0.4-0.7-1-1.4-1.7-1.9l23.5-40.4c0.9,0.4,1.9,0.6,3,0.6
		c1,0,2-0.3,2.9-0.8c0.9-0.5,1.7-1.2,2.2-2.1c0.6-0.9,0.9-1.8,1-2.9l46.8,0.2c0.1,1.3,0.7,2.5,1.7,3.3c1,0.9,2.2,1.3,3.5,1.3
		c0.8,0,1.6-0.2,2.3-0.5l22.4,39c-1.1,0.7-2.1,1.7-2.7,2.9c-0.7,1.2-1,2.5-1,3.8c0,1.3,0.3,2.7,0.9,3.9c0.6,1.2,1.5,2.2,2.6,3
		l-21.9,37.5C1254.5,108.2,1253.6,108,1252.7,108.1z M1256.3,119.8c0.8-0.6,1.5-1.3,2-2.2c0.5-0.9,0.7-1.9,0.8-2.9
		c0-1-0.2-2-0.6-2.9c-0.4-0.9-1.1-1.7-1.9-2.3l21.9-37.6c1.2,0.6,2.6,0.9,3.9,0.8c1.4-0.1,2.7-0.5,3.9-1.2c1.2-0.7,2.2-1.7,2.8-2.9
		c0.7-1.2,1.1-2.5,1.1-3.9l43.6,0.2c0.1,1.6,0.8,3.1,2,4.2c1.1,1.1,2.6,1.7,4.2,1.8c0.9,0,1.9-0.2,2.8-0.6l23.6,40.9
		c-0.7,0.5-1.2,1.1-1.6,1.8c-0.4,0.7-0.6,1.5-0.6,2.3c0,0.8,0.2,1.6,0.5,2.4c0.4,0.7,0.9,1.4,1.5,1.9l-22.4,38.5
		c-1-0.5-2.2-0.7-3.3-0.8c-2.1,0-4.1,0.7-5.7,2.2c-1.6,1.4-2.5,3.4-2.7,5.5l-45.3-0.2c-0.1-1.3-0.7-2.4-1.6-3.3
		c-0.9-0.9-2.2-1.4-3.4-1.4c-0.7,0-1.4,0.1-2.1,0.4L1256.3,119.8z M1279.7,170.1c0.6,0.2,1.2,0.3,1.8,0.4c1.2,0,2.4-0.4,3.4-1.2
		c0.9-0.8,1.6-1.9,1.8-3.1l45.4,0.2c0.2,2,1.2,3.8,2.7,5.1c1.5,1.3,3.4,2.1,5.4,2.1c1.2,0,2.4-0.2,3.6-0.7l22.4,39.2
		c-0.6,0.5-1.1,1.1-1.4,1.7c-0.3,0.7-0.5,1.4-0.5,2.2c0,0.8,0.2,1.6,0.5,2.3c0.3,0.7,0.8,1.3,1.4,1.8l-22.7,39
		c-1.2-0.6-2.5-0.8-3.8-0.8c-1.3,0.1-2.6,0.4-3.8,1.1c-1.1,0.7-2.1,1.6-2.8,2.7c-0.7,1.1-1.1,2.4-1.2,3.7h-42.1
		c-0.1-1.3-0.6-2.5-1.3-3.6c-0.7-1.1-1.7-2-2.8-2.7c-1.1-0.7-2.4-1-3.7-1.1c-1.3-0.1-2.6,0.2-3.8,0.7l-21-36.6c1.1-0.8,2-1.8,2.6-3
		c0.6-1.2,0.9-2.5,0.9-3.8c0-1.3-0.3-2.6-0.9-3.8c-0.6-1.2-1.5-2.2-2.6-3L1279.7,170.1z M1193.7,222.3c1.6,0,3.2-0.5,4.4-1.6
		c1.2-1.1,2-2.6,2.1-4.2h43.8c0.1,2.1,1,4,2.5,5.4c1.5,1.4,3.4,2.2,5.5,2.3c1.2,0,2.4-0.3,3.5-0.8l21,36.6c-1.1,0.8-2,1.8-2.6,3
		s-0.9,2.5-0.9,3.8c0,1.3,0.3,2.6,0.9,3.8c0.6,1.2,1.5,2.2,2.6,3l-21.9,37.7c-0.8-0.4-1.7-0.6-2.6-0.6c-1.6,0-3.2,0.6-4.4,1.7
		c-1.2,1.1-2,2.6-2.1,4.3H1201c-0.3-1.9-1.2-3.7-2.7-5c-1.5-1.3-3.3-2-5.3-2.1c-1,0-2,0.1-2.9,0.5l-22.2-39c0.8-0.5,1.4-1.2,1.9-2
		c0.5-0.8,0.7-1.7,0.7-2.6c0-0.9-0.2-1.9-0.6-2.7c-0.4-0.8-1.1-1.5-1.9-2l23.2-39.9C1192,222.1,1192.8,222.3,1193.7,222.3z
		 M1080.2,211.2l22.8-39c1,0.5,2.2,0.8,3.3,0.8c2.1,0,4.1-0.7,5.6-2.1s2.5-3.3,2.7-5.4l44.2,0.2c0.1,1.6,0.8,3.1,2,4.2
		c1.2,1.1,2.7,1.7,4.3,1.8c0.9,0,1.8-0.2,2.6-0.5l22.6,39.5c-0.8,0.6-1.5,1.3-2,2.2c-0.5,0.9-0.8,1.9-0.8,2.9c0,1,0.2,2,0.6,2.9
		c0.4,0.9,1.1,1.7,1.9,2.3l-23.3,40c-0.5-0.2-1-0.2-1.6-0.3c-1.3,0-2.7,0.4-3.7,1.3s-1.7,2.1-1.8,3.5h-45.5c-0.1-2.1-1-4.1-2.4-5.5
		c-1.5-1.5-3.5-2.3-5.6-2.4c-1.2,0-2.4,0.3-3.5,0.8l-22.6-39.4c0.6-0.4,1.1-1,1.5-1.6c0.4-0.6,0.6-1.4,0.6-2.1
		c0-0.7-0.1-1.5-0.4-2.1c-0.3-0.7-0.8-1.3-1.3-1.7L1080.2,211.2z M1016.4,220.2c0.6,0.3,1.3,0.4,2,0.5c1.4,0,2.7-0.5,3.8-1.4
		c1-0.9,1.7-2.2,1.8-3.5l48.6,0.2c0.2,1,0.8,1.9,1.5,2.6c0.8,0.7,1.7,1.1,2.8,1.2c0.5,0,1-0.1,1.5-0.2l22.6,39.5
		c-1.1,0.8-2,1.8-2.6,2.9c-0.6,1.2-0.9,2.5-0.9,3.8s0.3,2.6,0.9,3.8c0.6,1.2,1.5,2.2,2.6,2.9l-21.8,38.1c-0.8-0.4-1.6-0.5-2.4-0.6
		c-1.6,0-3.2,0.5-4.3,1.6c-1.2,1.1-2,2.5-2.1,4.1l-47.1-0.2c-0.2-1.2-0.8-2.3-1.7-3.2c-0.9-0.8-2.1-1.3-3.3-1.3
		c-0.7,0-1.3,0.1-2,0.3l-22.9-40.1c0.9-0.7,1.7-1.5,2.2-2.5c0.5-1,0.8-2.1,0.9-3.2c0-1.2-0.3-2.4-0.8-3.5c-0.5-1.1-1.3-2-2.3-2.7
		L1016.4,220.2z M928.4,270.7c0.9,0.5,1.9,0.8,2.9,0.8c1.5,0,3.1-0.5,4.2-1.5c1.2-1,2-2.4,2.2-3.9h44.1c0.1,1.8,1,3.4,2.3,4.6
		c1.3,1.2,3,1.9,4.8,1.9c1,0,2-0.2,3-0.6l22.9,40.1c-0.6,0.5-1.1,1.1-1.5,1.8c-0.4,0.7-0.5,1.4-0.6,2.2c0,0.8,0.2,1.7,0.5,2.4
		c0.4,0.7,0.9,1.4,1.6,1.9l-22.6,38.8c-1.2-0.6-2.5-0.9-3.9-0.8c-1.3,0-2.7,0.4-3.8,1.1c-1.2,0.7-2.1,1.6-2.9,2.8
		c-0.7,1.1-1.1,2.5-1.2,3.8h-45c-0.2-1.2-0.7-2.4-1.7-3.2c-0.9-0.8-2.1-1.3-3.3-1.3c-0.8,0-1.6,0.2-2.3,0.5l-22.8-40.1
		c1-0.6,1.8-1.5,2.4-2.5c0.6-1,0.9-2.2,0.9-3.4c0-1.2-0.3-2.4-0.8-3.4c-0.5-1-1.4-1.9-2.3-2.6L928.4,270.7z M843.3,222.8
		c2.1,0.1,4.2-0.7,5.7-2.1s2.5-3.4,2.7-5.5h44.6c0.1,1.3,0.7,2.5,1.6,3.3c0.9,0.9,2.1,1.4,3.4,1.4c0.8,0,1.6-0.2,2.3-0.5l23.4,40.8
		c-1.3,1.2-2,2.8-2.1,4.6c0,0.9,0.2,1.9,0.6,2.7c0.4,0.9,0.9,1.6,1.6,2.2l-22.9,39.3c-0.9-0.4-1.8-0.6-2.8-0.6
		c-1.8-0.1-3.7,0.6-5,1.8c-1.4,1.2-2.2,3-2.3,4.8h-44.6c-0.1-1.6-0.8-3.1-1.9-4.3c-1.2-1.1-2.7-1.8-4.3-1.8c-1.1,0-2.2,0.2-3.1,0.8
		l-22.6-39.5c0.9-0.6,1.6-1.4,2.1-2.3c0.5-0.9,0.8-1.9,0.8-3c0-1.1-0.2-2.1-0.7-3.1c-0.5-0.9-1.2-1.8-2.1-2.4l22-37.8
		C840.8,222.5,842,222.8,843.3,222.8L843.3,222.8z M840.9,17.9c0.8,0.4,1.7,0.6,2.7,0.7c1.6,0,3.2-0.6,4.5-1.7
		c1.2-1.1,2-2.7,2.1-4.3h45c0.2,1.8,1,3.4,2.3,4.6c1.3,1.2,3,1.9,4.8,1.8c1,0,2-0.2,3-0.6l22.9,40.1c-0.6,0.5-1.1,1.1-1.5,1.8
		c-0.4,0.7-0.5,1.5-0.6,2.2c0,0.8,0.2,1.6,0.5,2.4c0.4,0.7,0.9,1.4,1.5,1.9l-23.5,40.4c-0.9-0.5-1.8-0.7-2.8-0.7
		c-1.7,0-3.3,0.6-4.5,1.7c-1.2,1.1-1.9,2.7-2,4.4l-46.6-0.2c-0.1-1.3-0.7-2.4-1.6-3.3c-0.9-0.9-2.1-1.3-3.4-1.4
		c-0.7,0-1.5,0.1-2.1,0.4l-22.2-39c1.1-0.8,1.9-1.8,2.5-3c0.6-1.2,0.9-2.5,0.8-3.8c0-1.3-0.4-2.6-1-3.8c-0.6-1.2-1.6-2.1-2.7-2.9
		L840.9,17.9z M726.9,107.1c-1.4,0-2.8,0.4-3.8,1.4c-1.1,0.9-1.7,2.2-1.9,3.6l-46.7-0.2c-0.1-1.6-0.8-3.1-1.9-4.2
		c-1.2-1.1-2.7-1.8-4.3-1.8c-1,0-2,0.2-2.9,0.6l-22.6-39.4c0.9-0.6,1.6-1.4,2.1-2.3c0.5-0.9,0.8-2,0.8-3c0-1-0.3-2.1-0.8-3
		c-0.5-0.9-1.2-1.7-2.1-2.3l22.9-39.3c0.7,0.4,1.5,0.6,2.3,0.6c1.6,0,3.1-0.5,4.3-1.6c1.2-1,2-2.5,2.2-4.1h45.4
		c0.1,1.8,0.9,3.5,2.2,4.8c1.3,1.3,3,2,4.8,2c1,0,2-0.2,3-0.6l21.8,38c-1.1,0.6-1.9,1.5-2.6,2.5c-0.6,1-1,2.2-1,3.4
		c0,1.2,0.2,2.4,0.8,3.5c0.6,1.1,1.4,2,2.4,2.7l-22.8,39C728.1,107.2,727.5,107.1,726.9,107.1z M729.8,117.2
		c0.7-0.5,1.3-1.2,1.7-1.9c0.4-0.8,0.6-1.6,0.7-2.5c0-0.9-0.2-1.7-0.6-2.5c-0.4-0.8-0.9-1.5-1.6-2l22.8-39c0.9,0.4,1.8,0.6,2.7,0.6
		c1.9,0,3.7-0.7,5.1-1.9c1.4-1.3,2.2-3,2.3-4.9l43.1,0.2c0.1,2.1,1,4.1,2.4,5.6c1.5,1.5,3.5,2.3,5.6,2.4c1.3,0,2.6-0.3,3.8-0.9
		l22.3,39c-0.6,0.5-1,1-1.4,1.7c-0.3,0.7-0.5,1.4-0.5,2.1c0,0.8,0.2,1.6,0.5,2.4c0.4,0.7,0.9,1.4,1.6,1.9l-24.4,41.9
		c-0.6-0.3-1.3-0.5-2-0.5c-1.2,0-2.5,0.4-3.4,1.2c-1,0.8-1.6,1.9-1.8,3.1h-45.8c-0.2-1.7-1-3.4-2.3-4.5c-1.3-1.2-3-1.8-4.8-1.8
		c-1.1,0-2.1,0.2-3.1,0.6L729.8,117.2z M730.2,208.5l22.3-38.4c1,0.5,2,0.7,3.1,0.8c0.9,0,1.9-0.1,2.7-0.4c0.9-0.3,1.7-0.8,2.4-1.5
		c0.7-0.6,1.2-1.4,1.6-2.3c0.4-0.9,0.6-1.8,0.6-2.7h45.8c0.2,1.2,0.7,2.4,1.7,3.2c0.9,0.8,2.1,1.3,3.3,1.3c0.8,0,1.6-0.2,2.3-0.5
		l22.7,39.6c-1,0.7-1.8,1.7-2.4,2.8s-0.9,2.4-0.9,3.6c0,1.3,0.2,2.6,0.8,3.7c0.6,1.2,1.4,2.2,2.4,3l-22,37.9
		c-0.7-0.3-1.5-0.5-2.3-0.5c-1.6,0-3.2,0.5-4.4,1.6c-1.2,1.1-2,2.6-2.1,4.2h-47c-0.2-1.2-0.8-2.3-1.7-3.1c-0.9-0.8-2.1-1.3-3.3-1.3
		c-0.7,0-1.4,0.1-2.1,0.4l-23.4-40.9c0.9-0.6,1.6-1.3,2.1-2.3c0.5-0.9,0.8-1.9,0.8-3c0-1.1-0.3-2.1-0.8-3
		C731.8,209.9,731.1,209.1,730.2,208.5z M667.8,219.1c1.3,0,2.5-0.4,3.5-1.2c1-0.8,1.6-2,1.8-3.2h47.3c0.2,1.5,0.9,2.9,2.1,3.9
		c1.1,1,2.6,1.6,4.1,1.6c0.8,0,1.5-0.1,2.3-0.4l23.5,41c-0.6,0.5-1.1,1.1-1.4,1.8c-0.3,0.7-0.5,1.4-0.5,2.2s0.2,1.5,0.5,2.2
		c0.3,0.7,0.8,1.3,1.4,1.8l-23.1,39.5c-1.1-0.5-2.2-0.8-3.4-0.7s-2.3,0.4-3.3,1c-1,0.6-1.9,1.5-2.5,2.5c-0.6,1-0.9,2.2-1,3.3h-46.5
		c-0.1-1.3-0.7-2.5-1.6-3.3s-2.1-1.4-3.4-1.4c-0.7,0-1.4,0.1-2.1,0.4l-23-40.2c0.8-0.6,1.5-1.3,1.9-2.2c0.5-0.9,0.7-1.9,0.7-2.8
		c0-1.1-0.2-2.1-0.7-3.1c-0.5-1-1.2-1.8-2.1-2.4l23.8-40.8c0.6,0.2,1.2,0.3,1.8,0.3V219.1z M578.5,167.8c0.7,0.4,1.6,0.5,2.4,0.5
		c0.8,0,1.6-0.2,2.3-0.6c0.7-0.4,1.3-1,1.8-1.7s0.7-1.5,0.8-2.3h46.7c0.2,1.5,0.9,3,2,4c1.1,1.1,2.6,1.6,4.2,1.7
		c1,0,1.9-0.2,2.8-0.6l23.4,40.8c-0.6,0.5-1.1,1.1-1.5,1.8c-0.4,0.7-0.5,1.5-0.5,2.3s0.2,1.6,0.5,2.3c0.4,0.7,0.9,1.3,1.5,1.8
		L641,258.7c-0.7-0.3-1.4-0.5-2.2-0.5c-1.5,0-3.1,0.5-4.2,1.5c-1.2,1-2,2.4-2.2,3.9h-45.6c-0.1-1.8-0.9-3.5-2.3-4.7
		c-1.3-1.2-3-1.9-4.8-1.9c-0.9,0-1.9,0.1-2.7,0.5l-22.4-39.7c0.7-0.5,1.2-1.1,1.6-1.9c0.4-0.7,0.5-1.6,0.5-2.4
		c0-0.8-0.2-1.6-0.7-2.4c-0.4-0.7-1-1.3-1.7-1.8L578.5,167.8z M467.4,257.4l21.7-37.3c1,0.5,2.1,0.9,3.3,0.9c1,0,1.9-0.1,2.8-0.4
		c0.9-0.3,1.7-0.9,2.4-1.5c0.7-0.7,1.2-1.5,1.6-2.3c0.4-0.9,0.6-1.8,0.6-2.8h46.3c0.1,1.3,0.7,2.5,1.6,3.4c0.9,0.9,2.2,1.4,3.5,1.4
		c0.6,0,1.3-0.1,1.9-0.3l22.8,39.6c-1,0.6-1.9,1.5-2.5,2.5c-0.6,1-0.9,2.2-0.9,3.4c0,1.2,0.3,2.4,0.9,3.5c0.6,1.1,1.4,2,2.4,2.7
		l-23,39.5c-0.6-0.2-1.2-0.4-1.9-0.4c-1.3,0-2.6,0.4-3.5,1.3c-1,0.9-1.6,2.1-1.7,3.3h-48.2c-0.2-1.2-0.9-2.3-1.9-3.1
		s-2.2-1.3-3.4-1.3c-0.6,0-1.2,0.1-1.8,0.2l-23.1-40.4c1-0.6,1.9-1.5,2.4-2.6c0.6-1.1,0.9-2.2,0.9-3.4c0-1.2-0.3-2.4-0.9-3.4
		s-1.4-1.9-2.4-2.6L467.4,257.4z M404.5,269.4c1.4,0,2.8-0.5,3.8-1.5c1-1,1.7-2.3,1.8-3.7h46.1c0.2,1.7,1,3.3,2.3,4.5
		c1.3,1.2,3,1.8,4.7,1.8c1,0,1.9-0.1,2.8-0.5l22.9,40.1c-0.7,0.5-1.4,1.2-1.8,1.9c-0.4,0.8-0.7,1.7-0.7,2.6c0,0.9,0.2,1.8,0.6,2.5
		c0.4,0.8,1,1.5,1.7,2L465,360c-0.6-0.3-1.2-0.4-1.8-0.4c-1.3,0-2.5,0.4-3.4,1.3c-1,0.8-1.6,2-1.7,3.2h-45h-2.5
		c-0.1-1.5-0.8-2.9-1.9-3.9c-1.1-1-2.5-1.6-4-1.7c-0.9,0-1.8,0.2-2.6,0.5l-22.3-39c1.1-0.6,1.9-1.5,2.5-2.6s0.9-2.3,0.9-3.5
		c0-1.2-0.3-2.4-0.9-3.5s-1.5-2-2.5-2.6l22.8-39C403.1,269.2,403.8,269.3,404.5,269.4z M291.1,259l23.1-39.7
		c1.1,0.6,2.3,0.9,3.5,0.9s2.5-0.3,3.5-0.9c1.1-0.6,2-1.5,2.6-2.6c0.6-1.1,1-2.3,1-3.5l42.8,0.2c0,2.1,0.9,4.2,2.4,5.7
		c1.5,1.5,3.5,2.4,5.7,2.5c1.3,0,2.6-0.3,3.8-0.9l22.1,38.6c-0.7,0.5-1.4,1.1-1.8,1.9c-0.4,0.8-0.7,1.6-0.7,2.5
		c0,0.8,0.2,1.7,0.5,2.4c0.4,0.8,0.9,1.4,1.5,2l-22.8,39c-0.8-0.3-1.7-0.5-2.6-0.5c-1.8-0.1-3.6,0.6-5,1.8c-1.4,1.2-2.2,2.9-2.3,4.8
		h-44.4c0-1.9-0.7-3.7-2.1-5c-1.3-1.3-3.1-2.1-5-2.1c-1.2,0-2.3,0.2-3.3,0.7L290.9,267c0.6-0.5,1.1-1.1,1.5-1.8
		c0.3-0.7,0.5-1.4,0.6-2.2c0-0.8-0.2-1.5-0.5-2.2C292.1,260.1,291.6,259.4,291.1,259L291.1,259z M226.2,269.6
		c0.9,0.4,1.8,0.6,2.7,0.6c1.9,0.1,3.7-0.6,5-1.8c1.4-1.2,2.2-3,2.3-4.8h46.5c0.1,0.8,0.4,1.5,0.8,2.2c0.4,0.7,1,1.2,1.7,1.6
		c0.7,0.4,1.5,0.6,2.3,0.7c0.8,0,1.6-0.1,2.3-0.4l22.8,39.9c-0.9,0.6-1.6,1.5-2,2.4c-0.5,1-0.7,2-0.8,3.1c0,1.2,0.2,2.4,0.7,3.4
		c0.5,1.1,1.3,2,2.3,2.7L290,358.5c-0.7-0.3-1.5-0.5-2.2-0.5c-1.5,0-3,0.5-4.1,1.5c-1.1,1-1.9,2.4-2,3.9h-47.5
		c-0.2-1.1-0.9-2.1-1.8-2.9c-0.9-0.7-2-1.1-3.1-1.2c-0.7,0-1.3,0.1-1.9,0.3l-23.7-41.2c0.7-0.6,1.3-1.3,1.7-2.1
		c0.4-0.8,0.6-1.7,0.7-2.6c0-1-0.2-2-0.6-2.9c-0.4-0.9-1.1-1.7-1.9-2.2L226.2,269.6z M139.4,217.1c0.6,0.2,1.3,0.4,1.9,0.4
		c1.3,0,2.5-0.4,3.4-1.2c1-0.8,1.6-2,1.7-3.2h46.1c0.1,1.8,1,3.5,2.3,4.7c1.3,1.2,3,1.9,4.8,2c1,0,2-0.2,3-0.6l22.2,37.9
		c-1,0.6-1.8,1.5-2.3,2.6c-0.6,1-0.8,2.2-0.8,3.4c0,1.2,0.3,2.3,0.8,3.4c0.6,1,1.4,1.9,2.3,2.6L209.7,295l-7.6,13
		c-0.7-0.3-1.4-0.4-2.1-0.5c-1.5,0-3,0.5-4.1,1.5c-1.1,1-1.9,2.4-2.1,3.9h-47.6c-0.1-1.3-0.7-2.5-1.6-3.3c-0.9-0.9-2.1-1.4-3.4-1.4
		c-0.7,0-1.5,0.1-2.1,0.4l-23.4-40.4c0.7-0.5,1.3-1.3,1.7-2.1c0.4-0.8,0.6-1.7,0.7-2.6c0-1-0.2-2-0.7-2.9s-1.1-1.7-1.9-2.2
		L139.4,217.1z M27.6,115.4c0.6-0.5,1.2-1.1,1.5-1.8c0.4-0.7,0.5-1.5,0.5-2.3c0-0.8-0.2-1.6-0.5-2.3c-0.4-0.7-0.9-1.3-1.5-1.8
		l22.9-39.7c1,0.5,2,0.7,3.1,0.8c1,0,1.9-0.1,2.8-0.5c0.9-0.3,1.7-0.9,2.4-1.5c0.7-0.7,1.2-1.5,1.6-2.3c0.4-0.9,0.6-1.8,0.6-2.8
		h45.8c0.2,1.3,0.8,2.5,1.8,3.4c1,0.9,2.2,1.4,3.5,1.4c0.8,0,1.5-0.1,2.2-0.4l23.8,41.4c-0.6,0.5-1.1,1.1-1.5,1.7
		c-0.4,0.7-0.6,1.4-0.6,2.2c0,0.8,0.2,1.7,0.6,2.4c0.4,0.8,0.9,1.4,1.6,1.9l-22.5,39c-1.2-0.6-2.5-0.9-3.9-0.8
		c-1.3,0-2.6,0.4-3.8,1.1c-1.2,0.7-2.1,1.6-2.8,2.7c-0.7,1.1-1.1,2.4-1.2,3.7H60.8c-0.1-1.8-0.8-3.6-2.2-4.9c-1.3-1.3-3.1-2-4.9-2
		c-1.1,0-2.3,0.2-3.3,0.7L27.6,115.4z M50.7,168.2c0.9,0.4,1.8,0.6,2.7,0.6c1.8,0,3.5-0.6,4.8-1.7c1.3-1.1,2.2-2.7,2.5-4.5H104
		c0.2,2,1.1,3.9,2.6,5.3c1.5,1.4,3.4,2.2,5.4,2.2c1.2,0,2.4-0.3,3.5-0.8l22.5,39c-0.6,0.5-1,1.1-1.3,1.7c-0.3,0.7-0.5,1.4-0.5,2.1
		c0,0.8,0.2,1.5,0.5,2.2c0.3,0.7,0.8,1.3,1.4,1.8l-23.9,41.4c-0.7-0.3-1.3-0.4-2.1-0.4c-1.5,0-2.9,0.5-4,1.4
		c-1.1,0.9-1.9,2.2-2.1,3.7H59.6c-0.1-0.9-0.5-1.8-1-2.6c-0.5-0.8-1.2-1.4-2.1-1.9c-0.8-0.5-1.7-0.7-2.7-0.8c-0.9,0-1.9,0.1-2.7,0.5
		l-22.5-39c1-0.6,1.9-1.5,2.5-2.6c0.6-1.1,0.9-2.3,0.9-3.5c0-1.2-0.3-2.4-0.9-3.5c-0.6-1.1-1.5-2-2.5-2.6L50.7,168.2z M-37.1,219.1
		c1,0.5,2.2,0.7,3.3,0.6c1.1-0.1,2.3-0.4,3.2-1c1-0.6,1.8-1.4,2.4-2.4c0.6-1,0.9-2.1,1-3.2h44.5c0.1,1.8,0.9,3.5,2.2,4.7
		c1.3,1.2,3.1,1.9,4.9,1.9c1,0,2-0.2,2.9-0.6l21.6,37.4l1,1.7c-0.7,0.6-1.3,1.3-1.8,2.1c-0.4,0.8-0.6,1.7-0.6,2.7
		c0,1,0.2,1.9,0.6,2.8c0.4,0.9,1,1.6,1.8,2.2l-22.6,39c-0.9-0.5-2-0.8-3-0.8c-1.8-0.1-3.6,0.6-5,1.8c-1.4,1.2-2.2,2.9-2.4,4.8h-45.2
		c-0.2-1.4-0.9-2.6-2-3.5s-2.4-1.4-3.8-1.4c-0.9,0-1.8,0.2-2.6,0.6l-22.7-39.5c1-0.6,1.7-1.5,2.3-2.5c0.5-1,0.8-2.2,0.8-3.3
		c0-1.2-0.3-2.3-0.8-3.3c-0.5-1-1.3-1.9-2.3-2.5L-37.1,219.1z M-123.9,166.9c0.6,0.3,1.3,0.5,2.1,0.5c1.3,0,2.6-0.5,3.6-1.3
		c1-0.9,1.6-2.1,1.7-3.4h46.9c0.1,1.5,0.8,2.9,1.9,3.9c1.1,1,2.5,1.6,4,1.6c1,0,2-0.2,2.8-0.6l22.5,39c-0.9,0.6-1.7,1.5-2.3,2.5
		c-0.5,1-0.9,2.1-0.9,3.3c0,1.2,0.2,2.4,0.8,3.5c0.5,1.1,1.4,2,2.4,2.7l-22,38c-0.9-0.4-1.9-0.6-2.8-0.7c-1.9-0.1-3.7,0.6-5.1,1.9
		c-1.4,1.3-2.2,3-2.3,4.9h-46.1c-0.1-1.3-0.6-2.5-1.5-3.4c-0.9-0.9-2.2-1.4-3.5-1.4c-0.8,0-1.6,0.1-2.3,0.5l-22.7-39.4
		c1-0.7,1.8-1.5,2.3-2.5c0.6-1,0.9-2.2,0.9-3.3c0-1.3-0.3-2.5-0.9-3.6c-0.6-1.1-1.5-2-2.6-2.7L-123.9,166.9z"/>
	
		<linearGradient id="SVGID_14_" gradientUnits="userSpaceOnUse" x1="8851.7783" y1="161.3705" x2="19831.2578" y2="89.0805" gradientTransform="matrix(1 0 0 -1 0 530)">
		<stop  offset="0" style="stop-color:#CEDFFF"/>
		<stop  offset="0.25" style="stop-color:#32D8DD"/>
		<stop  offset="0.5" style="stop-color:#60DF84"/>
		<stop  offset="0.75" style="stop-color:#FFD429"/>
		<stop  offset="1" style="stop-color:#DF2D5C"/>
	</linearGradient>
	<path class="st16" d="M667.3,303c2.3,0,4.6,0.7,6.5,2c1.9,1.3,3.4,3.1,4.3,5.3c0.9,2.1,1.1,4.5,0.7,6.8s-1.6,4.4-3.2,6
		s-3.7,2.8-6,3.2s-4.6,0.2-6.8-0.7s-4-2.4-5.3-4.3c-1.3-1.9-2-4.2-2-6.5c0-3.1,1.2-6.1,3.4-8.3C661.2,304.3,664.2,303,667.3,303
		L667.3,303z M667.3,325c2,0,4-0.6,5.7-1.7c1.7-1.1,3-2.7,3.8-4.6c0.8-1.9,1-3.9,0.6-5.9c-0.4-2-1.4-3.8-2.8-5.2
		c-1.4-1.4-3.2-2.4-5.2-2.8c-2-0.4-4-0.2-5.9,0.6c-1.9,0.8-3.5,2.1-4.6,3.8c-1.1,1.7-1.7,3.7-1.7,5.7c0,1.3,0.3,2.7,0.8,3.9
		c0.5,1.2,1.3,2.4,2.2,3.3c0.9,0.9,2.1,1.7,3.3,2.2C664.7,324.7,666,325,667.3,325z"/>
	
		<linearGradient id="SVGID_15_" gradientUnits="userSpaceOnUse" x1="9955.8301" y1="204.369" x2="22696.3906" y2="120.869" gradientTransform="matrix(1 0 0 -1 0 530)">
		<stop  offset="0" style="stop-color:#CEDFFF"/>
		<stop  offset="0.25" style="stop-color:#32D8DD"/>
		<stop  offset="0.5" style="stop-color:#60DF84"/>
		<stop  offset="0.75" style="stop-color:#FFD429"/>
		<stop  offset="1" style="stop-color:#DF2D5C"/>
	</linearGradient>
	<path class="st17" d="M463.3,249.8c2.7,0,5.3,0.8,7.6,2.3c2.2,1.5,4,3.6,5,6.1c1,2.5,1.3,5.2,0.8,7.9c-0.5,2.6-1.8,5.1-3.7,7
		c-1.9,1.9-4.3,3.2-7,3.7c-2.6,0.5-5.4,0.3-7.9-0.8c-2.5-1-4.6-2.8-6.1-5c-1.5-2.2-2.3-4.9-2.3-7.6c0-3.6,1.4-7,4-9.6
		S459.7,249.8,463.3,249.8z M463.3,275.5c2.4,0,4.7-0.7,6.7-2c2-1.3,3.5-3.2,4.5-5.4c0.9-2.2,1.2-4.6,0.7-7
		c-0.5-2.3-1.6-4.5-3.3-6.2c-1.7-1.7-3.8-2.8-6.2-3.3c-2.3-0.5-4.8-0.2-7,0.7s-4.1,2.5-5.4,4.5c-1.3,2-2,4.3-2,6.7
		c0,3.2,1.3,6.3,3.5,8.5C457,274.2,460.1,275.5,463.3,275.5L463.3,275.5z"/>
	
		<linearGradient id="SVGID_16_" gradientUnits="userSpaceOnUse" x1="9704.8379" y1="307.3555" x2="21716.2578" y2="228.3555" gradientTransform="matrix(1 0 0 -1 0 530)">
		<stop  offset="0" style="stop-color:#CEDFFF"/>
		<stop  offset="0.25" style="stop-color:#32D8DD"/>
		<stop  offset="0.5" style="stop-color:#60DF84"/>
		<stop  offset="0.75" style="stop-color:#FFD429"/>
		<stop  offset="1" style="stop-color:#DF2D5C"/>
	</linearGradient>
	<path class="st18" d="M755.7,151c2.5,0,5,0.8,7.1,2.2c2.1,1.4,3.7,3.4,4.7,5.8c1,2.3,1.2,4.9,0.7,7.4c-0.5,2.5-1.7,4.8-3.5,6.6
		c-1.8,1.8-4.1,3-6.6,3.5c-2.5,0.5-5.1,0.2-7.4-0.7c-2.3-1-4.3-2.6-5.8-4.7c-1.4-2.1-2.2-4.6-2.2-7.1c0-3.4,1.4-6.7,3.8-9.1
		C749.1,152.3,752.3,151,755.7,151L755.7,151z M755.7,175.1c2.2,0,4.4-0.7,6.3-1.9c1.9-1.2,3.3-3,4.2-5.1c0.9-2.1,1.1-4.4,0.6-6.6
		c-0.4-2.2-1.5-4.2-3.1-5.8c-1.6-1.6-3.6-2.7-5.8-3.1c-2.2-0.4-4.5-0.2-6.6,0.7c-2.1,0.9-3.8,2.3-5.1,4.2c-1.2,1.9-1.9,4.1-1.9,6.3
		c0,1.5,0.3,3,0.9,4.3c0.6,1.4,1.4,2.6,2.5,3.7c1.1,1.1,2.3,1.9,3.7,2.4C752.8,174.8,754.3,175.1,755.7,175.1L755.7,175.1z"/>
	
		<linearGradient id="SVGID_17_" gradientUnits="userSpaceOnUse" x1="8787.7178" y1="465.3774" x2="19602.2559" y2="394.1772" gradientTransform="matrix(1 0 0 -1 0 530)">
		<stop  offset="0" style="stop-color:#CEDFFF"/>
		<stop  offset="0.25" style="stop-color:#32D8DD"/>
		<stop  offset="0.5" style="stop-color:#60DF84"/>
		<stop  offset="0.75" style="stop-color:#FFD429"/>
		<stop  offset="1" style="stop-color:#DF2D5C"/>
	</linearGradient>
	<path class="st19" d="M727.2,0c2.3,0,4.5,0.7,6.4,1.9c1.9,1.3,3.4,3.1,4.3,5.2c0.9,2.1,1.1,4.4,0.7,6.7c-0.4,2.2-1.5,4.3-3.2,5.9
		c-1.6,1.6-3.7,2.7-5.9,3.2c-2.2,0.4-4.6,0.2-6.7-0.7s-3.9-2.4-5.2-4.3c-1.3-1.9-2-4.1-2-6.4c0-3.1,1.2-6,3.4-8.2
		C721.3,1.2,724.2,0,727.2,0L727.2,0z M727.2,21.6c2,0,3.9-0.6,5.6-1.7c1.6-1.1,2.9-2.7,3.7-4.5c0.8-1.8,1-3.8,0.6-5.8
		c-0.4-1.9-1.3-3.7-2.7-5.1c-1.4-1.4-3.2-2.4-5.1-2.7c-1.9-0.4-4-0.2-5.8,0.6c-1.8,0.8-3.4,2-4.5,3.7c-1.1,1.6-1.7,3.6-1.7,5.6
		c0,2.7,1.1,5.2,2.9,7.1C722,20.5,724.6,21.6,727.2,21.6L727.2,21.6z"/>
	
		<linearGradient id="SVGID_18_" gradientUnits="userSpaceOnUse" x1="10087.5254" y1="103.3049" x2="22295.625" y2="22.9045" gradientTransform="matrix(1 0 0 -1 0 530)">
		<stop  offset="0" style="stop-color:#CEDFFF"/>
		<stop  offset="0.25" style="stop-color:#32D8DD"/>
		<stop  offset="0.5" style="stop-color:#60DF84"/>
		<stop  offset="0.75" style="stop-color:#FFD429"/>
		<stop  offset="1" style="stop-color:#DF2D5C"/>
	</linearGradient>
	<path class="st20" d="M988.8,353.7c2.6,0,5.1,0.8,7.2,2.2c2.1,1.4,3.8,3.5,4.8,5.9c1,2.4,1.2,5,0.8,7.5c-0.5,2.5-1.7,4.9-3.6,6.7
		c-1.8,1.8-4.1,3.1-6.7,3.6c-2.5,0.5-5.2,0.2-7.5-0.7c-2.4-1-4.4-2.7-5.9-4.8c-1.4-2.1-2.2-4.7-2.2-7.2c0-3.5,1.4-6.8,3.8-9.2
		C982,355.1,985.3,353.7,988.8,353.7L988.8,353.7z M988.8,378.3c2.3,0,4.5-0.7,6.4-1.9c1.9-1.3,3.4-3.1,4.2-5.2
		c0.9-2.1,1.1-4.4,0.7-6.7c-0.4-2.2-1.5-4.3-3.2-5.9c-1.6-1.6-3.7-2.7-5.9-3.2c-2.2-0.4-4.6-0.2-6.7,0.7c-2.1,0.9-3.9,2.3-5.2,4.2
		c-1.3,1.9-1.9,4.1-1.9,6.4c0,3.1,1.2,6,3.4,8.1C982.8,377.1,985.7,378.3,988.8,378.3L988.8,378.3z"/>
	
		<linearGradient id="SVGID_19_" gradientUnits="userSpaceOnUse" x1="8793.1797" y1="109.8117" x2="20204.1191" y2="34.6809" gradientTransform="matrix(1 0 0 -1 0 530)">
		<stop  offset="0" style="stop-color:#CEDFFF"/>
		<stop  offset="0.25" style="stop-color:#32D8DD"/>
		<stop  offset="0.5" style="stop-color:#60DF84"/>
		<stop  offset="0.75" style="stop-color:#FFD429"/>
		<stop  offset="1" style="stop-color:#DF2D5C"/>
	</linearGradient>
	<path class="st21" d="M287.5,352c2.4,0,4.8,0.7,6.8,2.1c2,1.3,3.6,3.2,4.5,5.5c0.9,2.2,1.2,4.7,0.7,7c-0.5,2.4-1.6,4.5-3.3,6.2
		c-1.7,1.7-3.9,2.9-6.3,3.3c-2.4,0.5-4.8,0.2-7-0.7s-4.1-2.5-5.5-4.5c-1.3-2-2-4.4-2-6.8c0-3.2,1.3-6.3,3.6-8.6
		C281.1,353.3,284.2,352,287.5,352L287.5,352z M287.5,374.8c2.1,0,4.2-0.6,5.9-1.8c1.7-1.2,3.1-2.8,3.9-4.8c0.8-1.9,1-4.1,0.6-6.1
		c-0.4-2.1-1.4-4-2.9-5.4c-1.5-1.5-3.4-2.5-5.4-2.9c-2.1-0.4-4.2-0.2-6.1,0.6c-1.9,0.8-3.6,2.2-4.8,3.9c-1.2,1.7-1.8,3.8-1.8,5.9
		c0,2.8,1.1,5.5,3.1,7.5C281.9,373.7,284.6,374.8,287.5,374.8z"/>
	
		<linearGradient id="SVGID_20_" gradientUnits="userSpaceOnUse" x1="7843.7227" y1="-33.2645" x2="16767.0215" y2="-92.0243" gradientTransform="matrix(1 0 0 -1 0 530)">
		<stop  offset="0" style="stop-color:#CEDFFF"/>
		<stop  offset="0.25" style="stop-color:#32D8DD"/>
		<stop  offset="0.5" style="stop-color:#60DF84"/>
		<stop  offset="0.75" style="stop-color:#FFD429"/>
		<stop  offset="1" style="stop-color:#DF2D5C"/>
	</linearGradient>
	<path class="st22" d="M1192.4,509.9c1.9,0,3.7,0.6,5.3,1.6c1.6,1,2.8,2.5,3.5,4.3c0.7,1.7,0.9,3.7,0.5,5.5
		c-0.4,1.8-1.3,3.5-2.6,4.9c-1.3,1.3-3,2.2-4.9,2.6c-1.8,0.4-3.8,0.2-5.5-0.5c-1.7-0.7-3.2-1.9-4.3-3.5c-1-1.6-1.6-3.4-1.6-5.3
		c0-2.5,1-4.9,2.8-6.7C1187.4,510.9,1189.9,509.9,1192.4,509.9L1192.4,509.9z M1192.4,527.5c1.6,0,3.1-0.5,4.4-1.4
		c1.3-0.9,2.3-2.1,3-3.6s0.8-3.1,0.5-4.6c-0.3-1.6-1.1-3-2.2-4.1c-1.1-1.1-2.5-1.9-4.1-2.2c-1.5-0.3-3.2-0.1-4.6,0.5
		c-1.5,0.6-2.7,1.6-3.6,3c-0.9,1.3-1.3,2.9-1.3,4.5c0,2.1,0.8,4.2,2.3,5.7C1188.2,526.6,1190.3,527.5,1192.4,527.5z"/>
	
		<linearGradient id="SVGID_21_" gradientUnits="userSpaceOnUse" x1="10774.4854" y1="301.6985" x2="23743.3867" y2="216.2981" gradientTransform="matrix(1 0 0 -1 0 530)">
		<stop  offset="0" style="stop-color:#CEDFFF"/>
		<stop  offset="0.25" style="stop-color:#32D8DD"/>
		<stop  offset="0.5" style="stop-color:#60DF84"/>
		<stop  offset="0.75" style="stop-color:#FFD429"/>
		<stop  offset="1" style="stop-color:#DF2D5C"/>
	</linearGradient>
	<path class="st23" d="M1106.3,150.8c2.7,0,5.4,0.8,7.7,2.3c2.3,1.5,4.1,3.7,5.1,6.2c1,2.5,1.3,5.3,0.8,8c-0.5,2.7-1.8,5.2-3.8,7.1
		c-1.9,1.9-4.4,3.3-7.1,3.8c-2.7,0.5-5.5,0.3-8-0.8c-2.5-1-4.7-2.8-6.2-5.1c-1.5-2.3-2.3-5-2.3-7.7c0-3.7,1.5-7.2,4.1-9.8
		C1099.2,152.2,1102.7,150.8,1106.3,150.8z M1106.3,177c2.4,0,4.8-0.7,6.8-2.1c2-1.4,3.6-3.3,4.6-5.5c0.9-2.3,1.2-4.7,0.7-7.1
		c-0.5-2.4-1.6-4.6-3.4-6.3c-1.7-1.7-3.9-2.9-6.3-3.4c-2.4-0.5-4.9-0.2-7.1,0.7c-2.2,0.9-4.2,2.5-5.5,4.5c-1.3,2-2.1,4.4-2.1,6.9
		c0,1.6,0.3,3.2,0.9,4.7c0.6,1.5,1.5,2.9,2.7,4c1.1,1.1,2.5,2.1,4,2.7C1103.1,176.7,1104.7,177,1106.3,177z"/>
	
		<linearGradient id="SVGID_22_" gradientUnits="userSpaceOnUse" x1="8986.0215" y1="261.8621" x2="19835.1504" y2="190.4617" gradientTransform="matrix(1 0 0 -1 0 530)">
		<stop  offset="0" style="stop-color:#CEDFFF"/>
		<stop  offset="0.25" style="stop-color:#32D8DD"/>
		<stop  offset="0.5" style="stop-color:#60DF84"/>
		<stop  offset="0.75" style="stop-color:#FFD429"/>
		<stop  offset="1" style="stop-color:#DF2D5C"/>
	</linearGradient>
	<path class="st24" d="M901.5,203.3c2.3,0,4.5,0.7,6.4,2c1.9,1.3,3.4,3.1,4.3,5.2c0.9,2.1,1.1,4.5,0.7,6.7c-0.5,2.2-1.6,4.3-3.2,5.9
		c-1.6,1.6-3.7,2.7-5.9,3.2c-2.3,0.4-4.6,0.2-6.7-0.7c-2.1-0.9-3.9-2.4-5.2-4.3c-1.3-1.9-1.9-4.2-1.9-6.4c0-1.5,0.3-3,0.9-4.4
		c0.6-1.4,1.4-2.7,2.5-3.8c1.1-1.1,2.4-1.9,3.8-2.5C898.5,203.6,900,203.3,901.5,203.3L901.5,203.3z M901.5,225c2,0,3.9-0.6,5.6-1.7
		c1.6-1.1,2.9-2.7,3.7-4.5c0.8-1.8,0.9-3.9,0.5-5.8c-0.4-1.9-1.4-3.7-2.8-5.1s-3.2-2.4-5.2-2.7c-2-0.4-4-0.2-5.8,0.6
		c-1.8,0.8-3.4,2.1-4.5,3.7c-1.1,1.7-1.7,3.6-1.7,5.6c0,1.3,0.3,2.6,0.8,3.9c0.5,1.2,1.3,2.3,2.2,3.3c0.9,0.9,2.1,1.7,3.3,2.2
		C898.8,224.7,900.2,225,901.5,225L901.5,225z"/>
	
		<linearGradient id="SVGID_23_" gradientUnits="userSpaceOnUse" x1="7423.312" y1="68.5294" x2="16645.7734" y2="7.8097" gradientTransform="matrix(1 0 0 -1 0 530)">
		<stop  offset="0" style="stop-color:#CEDFFF"/>
		<stop  offset="0.25" style="stop-color:#32D8DD"/>
		<stop  offset="0.5" style="stop-color:#60DF84"/>
		<stop  offset="0.75" style="stop-color:#FFD429"/>
		<stop  offset="1" style="stop-color:#DF2D5C"/>
	</linearGradient>
	<path class="st25" d="M550,406.4c1.9,0,3.9,0.6,5.5,1.7c1.6,1.1,2.9,2.6,3.6,4.4c0.7,1.8,0.9,3.8,0.6,5.7c-0.4,1.9-1.3,3.7-2.7,5
		c-1.4,1.4-3.1,2.3-5,2.7c-1.9,0.4-3.9,0.2-5.7-0.6c-1.8-0.7-3.3-2-4.4-3.6c-1.1-1.6-1.7-3.5-1.7-5.5c0-2.6,1.1-5.1,2.9-7
		C544.8,407.4,547.3,406.4,550,406.4z M550,424.5c1.6,0,3.3-0.5,4.6-1.4c1.4-0.9,2.4-2.2,3.1-3.7c0.6-1.5,0.8-3.2,0.5-4.8
		c-0.3-1.6-1.1-3.1-2.3-4.3c-1.2-1.2-2.6-2-4.3-2.3c-1.6-0.3-3.3-0.2-4.8,0.5c-1.5,0.6-2.8,1.7-3.7,3.1c-0.9,1.4-1.4,3-1.4,4.6
		c0,2.2,0.9,4.3,2.4,5.9C545.6,423.7,547.8,424.5,550,424.5L550,424.5z"/>
	
		<linearGradient id="SVGID_24_" gradientUnits="userSpaceOnUse" x1="8458.2783" y1="263.2826" x2="19537.7383" y2="190.3822" gradientTransform="matrix(1 0 0 -1 0 530)">
		<stop  offset="0" style="stop-color:#CEDFFF"/>
		<stop  offset="0.25" style="stop-color:#32D8DD"/>
		<stop  offset="0.5" style="stop-color:#60DF84"/>
		<stop  offset="0.75" style="stop-color:#FFD429"/>
		<stop  offset="1" style="stop-color:#DF2D5C"/>
	</linearGradient>
	<path class="st26" d="M200.1,200.5c2.3,0,4.6,0.7,6.6,2c1.9,1.3,3.5,3.1,4.4,5.3c0.9,2.2,1.1,4.5,0.7,6.8c-0.5,2.3-1.6,4.4-3.2,6.1
		c-1.7,1.7-3.8,2.8-6.1,3.2c-2.3,0.5-4.7,0.2-6.8-0.7c-2.2-0.9-4-2.4-5.3-4.4s-2-4.2-2-6.6c0-3.1,1.3-6.1,3.5-8.4
		C193.9,201.8,196.9,200.6,200.1,200.5L200.1,200.5z M200.1,222.7c2,0,4-0.6,5.7-1.7c1.7-1.1,3-2.7,3.8-4.6c0.8-1.9,1-4,0.6-6
		c-0.4-2-1.4-3.8-2.8-5.3c-1.4-1.4-3.3-2.4-5.3-2.8c-2-0.4-4.1-0.2-6,0.6c-1.9,0.8-3.5,2.1-4.6,3.8s-1.7,3.7-1.7,5.7
		c0,2.7,1.1,5.4,3,7.3C194.7,221.6,197.3,222.7,200.1,222.7L200.1,222.7z"/>
	
		<linearGradient id="SVGID_25_" gradientUnits="userSpaceOnUse" x1="6863.2256" y1="424.9682" x2="15918.1064" y2="365.3373" gradientTransform="matrix(1 0 0 -1 0 530)">
		<stop  offset="0" style="stop-color:#CEDFFF"/>
		<stop  offset="0.25" style="stop-color:#32D8DD"/>
		<stop  offset="0.5" style="stop-color:#60DF84"/>
		<stop  offset="0.75" style="stop-color:#FFD429"/>
		<stop  offset="1" style="stop-color:#DF2D5C"/>
	</linearGradient>
	<path class="st27" d="M112.2,50.9c1.9,0,3.8,0.6,5.4,1.6c1.6,1.1,2.8,2.6,3.6,4.3c0.7,1.8,0.9,3.7,0.6,5.6c-0.4,1.9-1.3,3.6-2.6,5
		c-1.4,1.4-3.1,2.3-5,2.6c-1.9,0.4-3.8,0.2-5.6-0.6c-1.8-0.7-3.3-2-4.3-3.6c-1.1-1.6-1.6-3.5-1.6-5.4c0-2.6,1-5,2.8-6.8
		C107.2,51.9,109.7,50.9,112.2,50.9L112.2,50.9z M112.2,68.6c1.6,0,3.2-0.5,4.5-1.4c1.3-0.9,2.4-2.2,3-3.7c0.6-1.5,0.8-3.1,0.5-4.7
		c-0.3-1.6-1.1-3-2.2-4.2c-1.1-1.1-2.6-1.9-4.2-2.2c-1.6-0.3-3.2-0.2-4.7,0.5c-1.5,0.6-2.8,1.7-3.7,3c-0.9,1.3-1.4,2.9-1.4,4.5
		c0,1.1,0.2,2.2,0.6,3.2c0.4,1,1,1.9,1.8,2.7c0.8,0.8,1.7,1.4,2.7,1.8c1,0.4,2.1,0.6,3.2,0.6V68.6z"/>
	
		<linearGradient id="SVGID_26_" gradientUnits="userSpaceOnUse" x1="8776.6621" y1="158.7047" x2="20519.8516" y2="81.3053" gradientTransform="matrix(1 0 0 -1 0 530)">
		<stop  offset="0" style="stop-color:#CEDFFF"/>
		<stop  offset="0.25" style="stop-color:#32D8DD"/>
		<stop  offset="0.5" style="stop-color:#60DF84"/>
		<stop  offset="0.75" style="stop-color:#FFD429"/>
		<stop  offset="1" style="stop-color:#DF2D5C"/>
	</linearGradient>
	<path class="st28" d="M24.1,301.1c2.5,0,4.9,0.7,7,2.1c2.1,1.4,3.7,3.3,4.6,5.6c0.9,2.3,1.2,4.8,0.7,7.2c-0.5,2.4-1.7,4.7-3.4,6.4
		c-1.8,1.8-4,2.9-6.4,3.4c-2.4,0.5-5,0.2-7.3-0.7c-2.3-0.9-4.3-2.6-5.6-4.6c-1.4-2.1-2.1-4.5-2.1-7c0-1.6,0.3-3.3,1-4.8
		c0.6-1.5,1.6-2.9,2.7-4.1c1.2-1.2,2.5-2.1,4.1-2.7C20.8,301.4,22.4,301.1,24.1,301.1z M24.1,324.6c2.2,0,4.3-0.6,6.1-1.9
		c1.8-1.2,3.2-2.9,4.1-4.9c0.8-2,1.1-4.2,0.6-6.4c-0.4-2.1-1.5-4.1-3-5.6c-1.5-1.5-3.5-2.6-5.6-3c-2.1-0.4-4.4-0.2-6.4,0.6
		c-2,0.8-3.7,2.2-4.9,4.1c-1.2,1.8-1.9,3.9-1.9,6.1c0,2.9,1.2,5.7,3.2,7.8C18.4,323.5,21.2,324.6,24.1,324.6L24.1,324.6z"/>
	
		<linearGradient id="SVGID_27_" gradientUnits="userSpaceOnUse" x1="9150.5332" y1="109.7802" x2="19863.7734" y2="39.2304" gradientTransform="matrix(1 0 0 -1 0 530)">
		<stop  offset="0" style="stop-color:#CEDFFF"/>
		<stop  offset="0.25" style="stop-color:#32D8DD"/>
		<stop  offset="0.5" style="stop-color:#60DF84"/>
		<stop  offset="0.75" style="stop-color:#FFD429"/>
		<stop  offset="1" style="stop-color:#DF2D5C"/>
	</linearGradient>
	<path class="st29" d="M1163.7,356.2c2.3,0,4.5,0.7,6.4,1.9c1.9,1.3,3.4,3,4.2,5.1c0.9,2.1,1.1,4.4,0.7,6.6
		c-0.4,2.2-1.5,4.3-3.1,5.9c-1.6,1.6-3.6,2.7-5.9,3.1c-2.2,0.4-4.5,0.2-6.6-0.7c-2.1-0.9-3.9-2.3-5.1-4.2c-1.2-1.9-1.9-4.1-1.9-6.4
		c0-3,1.2-5.9,3.3-8.1S1160.7,356.2,1163.7,356.2L1163.7,356.2z M1163.7,377.4c2,0,3.9-0.6,5.5-1.7c1.6-1.1,2.9-2.6,3.7-4.5
		c0.8-1.8,1-3.8,0.6-5.7s-1.3-3.7-2.7-5.1c-1.4-1.4-3.2-2.3-5.1-2.7c-1.9-0.4-3.9-0.2-5.7,0.6c-1.8,0.8-3.4,2-4.4,3.7
		c-1.1,1.6-1.7,3.6-1.7,5.5c0,1.3,0.2,2.6,0.7,3.8c0.5,1.2,1.2,2.3,2.2,3.2c0.9,0.9,2,1.7,3.2,2.2
		C1161.1,377.3,1162.4,377.5,1163.7,377.4L1163.7,377.4z"/>
	
		<linearGradient id="SVGID_28_" gradientUnits="userSpaceOnUse" x1="11749.5137" y1="194.4908" x2="25714.1133" y2="102.4908" gradientTransform="matrix(1 0 0 -1 0 530)">
		<stop  offset="0" style="stop-color:#CEDFFF"/>
		<stop  offset="0.25" style="stop-color:#32D8DD"/>
		<stop  offset="0.5" style="stop-color:#60DF84"/>
		<stop  offset="0.75" style="stop-color:#FFD429"/>
		<stop  offset="1" style="stop-color:#DF2D5C"/>
	</linearGradient>
	<path class="st30" d="M1339.7,252c3,0,5.8,0.9,8.3,2.5s4.4,4,5.5,6.7s1.4,5.7,0.9,8.6c-0.6,2.9-2,5.6-4.1,7.6
		c-2.1,2.1-4.8,3.5-7.7,4.1c-2.9,0.6-5.9,0.3-8.6-0.9c-2.7-1.1-5.1-3.1-6.7-5.5c-1.6-2.5-2.5-5.4-2.5-8.3c0-3.9,1.6-7.7,4.4-10.5
		C1332,253.6,1335.7,252,1339.7,252L1339.7,252z M1339.7,280.4c2.6,0,5.2-0.8,7.4-2.3c2.2-1.5,3.9-3.6,4.9-6c1-2.4,1.3-5.1,0.8-7.7
		c-0.5-2.6-1.8-5-3.7-6.9c-1.9-1.9-4.3-3.1-6.9-3.7c-2.6-0.5-5.3-0.3-7.7,0.8c-2.5,1-4.6,2.7-6,4.9c-1.5,2.2-2.3,4.8-2.3,7.4
		c0,3.5,1.4,6.9,3.9,9.4S1336.1,280.3,1339.7,280.4L1339.7,280.4z"/>
	
		<linearGradient id="SVGID_29_" gradientUnits="userSpaceOnUse" x1="8169.291" y1="471.2191" x2="17290.8301" y2="411.1488" gradientTransform="matrix(1 0 0 -1 0 530)">
		<stop  offset="0" style="stop-color:#CEDFFF"/>
		<stop  offset="0.25" style="stop-color:#32D8DD"/>
		<stop  offset="0.5" style="stop-color:#60DF84"/>
		<stop  offset="0.75" style="stop-color:#FFD429"/>
		<stop  offset="1" style="stop-color:#DF2D5C"/>
	</linearGradient>
	<path class="st31" d="M1369.5,4.3c1.9,0,3.8,0.6,5.4,1.6c1.6,1.1,2.9,2.6,3.6,4.3c0.7,1.8,0.9,3.7,0.6,5.6c-0.3,1.9-1.3,3.6-2.6,5
		c-1.3,1.4-3.1,2.3-4.9,2.7c-1.9,0.4-3.8,0.2-5.6-0.5c-1.8-0.7-3.3-1.9-4.4-3.5c-1.1-1.6-1.7-3.4-1.7-5.4c0-1.3,0.2-2.6,0.7-3.8
		c0.5-1.2,1.2-2.3,2.1-3.2c0.9-0.9,2-1.7,3.2-2.2C1367,4.5,1368.2,4.3,1369.5,4.3L1369.5,4.3z M1369.5,22.2c1.6,0,3.2-0.5,4.6-1.4
		s2.4-2.2,3-3.7c0.6-1.5,0.8-3.2,0.4-4.8s-1.1-3.1-2.3-4.2c-1.2-1.1-2.7-1.9-4.3-2.2c-1.6-0.3-3.3-0.1-4.8,0.5s-2.8,1.7-3.7,3.1
		c-0.9,1.4-1.3,3-1.3,4.6c0.1,2.1,0.9,4.2,2.5,5.7C1365.3,21.3,1367.4,22.2,1369.5,22.2L1369.5,22.2z"/>
	
		<linearGradient id="SVGID_30_" gradientUnits="userSpaceOnUse" x1="7989.5581" y1="421.5546" x2="17145.2988" y2="361.4648" gradientTransform="matrix(1 0 0 -1 0 530)">
		<stop  offset="0" style="stop-color:#CEDFFF"/>
		<stop  offset="0.25" style="stop-color:#32D8DD"/>
		<stop  offset="0.5" style="stop-color:#60DF84"/>
		<stop  offset="0.75" style="stop-color:#FFD429"/>
		<stop  offset="1" style="stop-color:#DF2D5C"/>
	</linearGradient>
	<path class="st32" d="M1165.4,53.9c1.9,0,3.8,0.6,5.4,1.6c1.6,1.1,2.9,2.6,3.6,4.4c0.8,1.8,0.9,3.7,0.6,5.6c-0.4,1.9-1.3,3.6-2.6,5
		c-1.4,1.4-3.1,2.3-5,2.7c-1.9,0.4-3.8,0.2-5.6-0.5c-1.8-0.7-3.3-2-4.4-3.5c-1.1-1.6-1.7-3.5-1.7-5.4c0-1.3,0.2-2.6,0.7-3.8
		c0.5-1.2,1.2-2.3,2.1-3.2c0.9-0.9,2-1.7,3.2-2.2C1162.8,54.1,1164.1,53.9,1165.4,53.9L1165.4,53.9z M1165.4,71.9
		c1.6,0,3.2-0.5,4.6-1.4c1.4-0.9,2.4-2.2,3.1-3.7c0.6-1.5,0.8-3.2,0.5-4.8c-0.3-1.6-1.1-3.1-2.3-4.2c-1.2-1.2-2.7-1.9-4.3-2.2
		c-1.6-0.3-3.3-0.1-4.8,0.5c-1.5,0.7-2.8,1.7-3.7,3.1c-0.9,1.4-1.3,3-1.3,4.6c0.1,2.1,0.9,4.2,2.5,5.7
		C1161.2,71,1163.3,71.9,1165.4,71.9L1165.4,71.9z"/>
	
		<linearGradient id="SVGID_31_" gradientUnits="userSpaceOnUse" x1="8213.1484" y1="-38.2444" x2="18728.0586" y2="-107.4846" gradientTransform="matrix(1 0 0 -1 0 530)">
		<stop  offset="0" style="stop-color:#CEDFFF"/>
		<stop  offset="0.25" style="stop-color:#32D8DD"/>
		<stop  offset="0.5" style="stop-color:#60DF84"/>
		<stop  offset="0.75" style="stop-color:#FFD429"/>
		<stop  offset="1" style="stop-color:#DF2D5C"/>
	</linearGradient>
	<path class="st33" d="M374.8,505.4c2.2,0,4.4,0.7,6.2,1.9c1.8,1.2,3.3,3,4.1,5c0.9,2.1,1.1,4.3,0.6,6.5c-0.4,2.2-1.5,4.2-3.1,5.8
		c-1.6,1.6-3.6,2.6-5.8,3.1c-2.2,0.4-4.4,0.2-6.5-0.7c-2.1-0.9-3.8-2.3-5-4.2c-1.2-1.9-1.9-4-1.9-6.3c0-1.5,0.3-2.9,0.9-4.3
		c0.6-1.4,1.4-2.6,2.4-3.6c1-1,2.3-1.9,3.6-2.4C371.9,505.7,373.4,505.4,374.8,505.4L374.8,505.4z M374.8,526.3
		c1.9,0,3.8-0.6,5.4-1.6c1.6-1.1,2.8-2.6,3.6-4.4c0.7-1.8,0.9-3.7,0.6-5.6c-0.4-1.9-1.3-3.6-2.7-5c-1.4-1.4-3.1-2.3-5-2.7
		c-1.9-0.4-3.8-0.2-5.6,0.6c-1.8,0.7-3.3,2-4.4,3.6c-1.1,1.6-1.6,3.5-1.6,5.4c0,1.3,0.3,2.5,0.7,3.7c0.5,1.2,1.2,2.2,2.1,3.2
		c0.9,0.9,2,1.6,3.2,2.1C372.3,526.1,373.6,526.3,374.8,526.3z"/>
</g>
</svg>
