<svg xmlns="http://www.w3.org/2000/svg" viewBox="0 0 901.47 324.29"><defs><style>.cls-1{isolation:isolate;}.cls-2{mix-blend-mode:multiply;}.cls-3{fill:#5fa1d2;}.cls-4{fill:#3050cb;}.cls-5{fill:#6f51c7;}.cls-6{fill:#00677d;}.cls-7{fill:#1b00b3;}.cls-8{fill:#4f33a3;}.cls-9{fill:#00c9ba;}.cls-10{fill:#00737c;}</style></defs><g class="cls-1"><g id="Layer_2" data-name="Layer 2"><g id="logo"><g id="logotype"><path d="M525.28,63.36v75.3h-4.74V74.48a27.45,27.45,0,0,1,.16-2.92l-29.64,52.63a2.33,2.33,0,0,1-2.13,1.38h-.85a2.33,2.33,0,0,1-2.13-1.38L455.51,71.45a29.49,29.49,0,0,1,.16,3v64.18h-4.79V63.36h3.78a3.32,3.32,0,0,1,1.17.16,2,2,0,0,1,.85.85l30.39,52.37a21.9,21.9,0,0,1,1.38,3.19c.21-.57.45-1.13.69-1.68s.52-1.07.8-1.57l29.54-52.31a1.88,1.88,0,0,1,.87-.85,3.67,3.67,0,0,1,1.2-.16Z"/><path d="M564.39,84.86a25.54,25.54,0,0,1,10.19,1.94,20.83,20.83,0,0,1,7.59,5.51,24.64,24.64,0,0,1,4.71,8.6,39.8,39.8,0,0,1,0,22.48,24.77,24.77,0,0,1-4.71,8.57,20.64,20.64,0,0,1-7.59,5.48,28.14,28.14,0,0,1-20.38,0,20.88,20.88,0,0,1-7.61-5.48,24.34,24.34,0,0,1-4.74-8.57,39.8,39.8,0,0,1,0-22.48,24.22,24.22,0,0,1,4.74-8.6,21.07,21.07,0,0,1,7.61-5.51A25.54,25.54,0,0,1,564.39,84.86Zm0,50.5a19.73,19.73,0,0,0,8.28-1.62,15.56,15.56,0,0,0,5.9-4.66,20.5,20.5,0,0,0,3.54-7.31,39.93,39.93,0,0,0,0-19.19,20.8,20.8,0,0,0-3.54-7.37,15.79,15.79,0,0,0-5.9-4.71,21.58,21.58,0,0,0-16.55,0,15.82,15.82,0,0,0-5.91,4.71,21.18,21.18,0,0,0-3.57,7.37,39.28,39.28,0,0,0,0,19.19,20.88,20.88,0,0,0,3.57,7.31,15.59,15.59,0,0,0,5.91,4.66A19.68,19.68,0,0,0,564.39,135.36Z"/><path d="M644,61.23v77.43h-2.76a1.45,1.45,0,0,1-1.6-1.38l-.53-8.36a28.11,28.11,0,0,1-8.2,7.61,20,20,0,0,1-10.53,2.82q-9.79,0-15.22-6.75t-5.43-20.28a37.35,37.35,0,0,1,1.51-10.83,26.08,26.08,0,0,1,4.45-8.73,21,21,0,0,1,7.21-5.82,21.88,21.88,0,0,1,9.87-2.13,20.48,20.48,0,0,1,9.31,2A19.43,19.43,0,0,1,639,92.63V61.23ZM639,97.1a18.15,18.15,0,0,0-6.73-6.44,20.32,20.32,0,0,0-16.63-.16,16,16,0,0,0-5.88,4.82,21.68,21.68,0,0,0-3.57,7.45,35.72,35.72,0,0,0-1.2,9.55q0,11.82,4.34,17.38t12.53,5.56a17.54,17.54,0,0,0,9.53-2.72,25.88,25.88,0,0,0,7.61-7.61Z"/><path d="M663.27,110.09v1a36,36,0,0,0,1.38,10.48,21.44,21.44,0,0,0,3.94,7.58,16.25,16.25,0,0,0,6.17,4.61,20.4,20.4,0,0,0,8.09,1.54,24.05,24.05,0,0,0,6.92-.88,25.26,25.26,0,0,0,4.92-2,25.55,25.55,0,0,0,3.17-2,3.62,3.62,0,0,1,1.7-.87,1.22,1.22,0,0,1,1.07.53l1.38,1.7a14.26,14.26,0,0,1-3.38,3A24.42,24.42,0,0,1,694,137.2a33.75,33.75,0,0,1-5.54,1.57,30.41,30.41,0,0,1-5.93.58,25.35,25.35,0,0,1-9.9-1.88,21,21,0,0,1-7.66-5.51A25.19,25.19,0,0,1,660,123.1a38.39,38.39,0,0,1-1.73-12,32.76,32.76,0,0,1,1.63-10.51,24.13,24.13,0,0,1,4.68-8.31,21.3,21.3,0,0,1,7.51-5.45,24.67,24.67,0,0,1,10.08-2,22.16,22.16,0,0,1,8.3,1.54,18.75,18.75,0,0,1,6.65,4.5,21.17,21.17,0,0,1,4.45,7.26,28.08,28.08,0,0,1,1.62,9.9,2.86,2.86,0,0,1-.32,1.6,1.25,1.25,0,0,1-1.06.43Zm35.33-3.25a23,23,0,0,0-1.19-7.64A16.32,16.32,0,0,0,694,93.48a14.8,14.8,0,0,0-5.19-3.59,17.17,17.17,0,0,0-6.63-1.25,19.93,19.93,0,0,0-7.34,1.28,16,16,0,0,0-5.62,3.67,18.24,18.24,0,0,0-3.8,5.75,26.61,26.61,0,0,0-1.92,7.5Z"/><path d="M722.55,61.23v77.43h-5.11V61.23Z"/><path d="M825.53,138.66h-4.21a1.83,1.83,0,0,1-1.22-.4,2.65,2.65,0,0,1-.75-1l-8.83-21.88h-37l-8.83,21.88a2.28,2.28,0,0,1-.75,1,2,2,0,0,1-1.27.42h-4.15l30.81-75.3h5.37Zm-16.66-27.35-15.33-38A38.79,38.79,0,0,1,792,68.79c-.21.85-.44,1.66-.69,2.42s-.52,1.46-.8,2.1l-15.33,38Z"/><path d="M901.47,101a44.7,44.7,0,0,1-2.61,15.69,33.85,33.85,0,0,1-7.35,11.87,31.64,31.64,0,0,1-11.36,7.51,39.68,39.68,0,0,1-14.61,2.6H838V63.36h27.51A39.48,39.48,0,0,1,880.15,66a31.75,31.75,0,0,1,11.36,7.5,33.94,33.94,0,0,1,7.35,11.87A44.59,44.59,0,0,1,901.47,101Zm-5.64,0a41.86,41.86,0,0,0-2.19-14,29.12,29.12,0,0,0-6.17-10.43,26.33,26.33,0,0,0-9.58-6.5,33,33,0,0,0-12.35-2.23h-22v66.47h22A33,33,0,0,0,877.89,132a26.3,26.3,0,0,0,9.58-6.49,29.29,29.29,0,0,0,6.17-10.43A42.08,42.08,0,0,0,895.83,101Z"/><path d="M496.11,243.93l-.1,4.52H450.88v-75.3H496v4.52H456.36v30.44h33v4.42h-33v31.4Z"/><path d="M549.07,248.45h-4.85a1.54,1.54,0,0,1-1.17-.45,6.28,6.28,0,0,1-.69-.88l-16.07-23.47a5.61,5.61,0,0,1-.8,1.86l-15.33,21.61a11.36,11.36,0,0,1-.77.9,1.33,1.33,0,0,1-1,.43h-4.57L523,221.36,504.52,195.5h4.84a1.65,1.65,0,0,1,1.12.32,3.25,3.25,0,0,1,.64.74L526.66,219a4.33,4.33,0,0,1,.35-.91c.15-.32.32-.64.5-1L542,196.62a3.66,3.66,0,0,1,.69-.8,1.39,1.39,0,0,1,1-.32h4.63L529.85,221Z"/><path d="M565,205a28.07,28.07,0,0,1,8.22-7.61,20.16,20.16,0,0,1,10.56-2.82q9.75,0,15.2,6.76t5.45,20.28a37.11,37.11,0,0,1-1.52,10.83,25.92,25.92,0,0,1-4.46,8.73,21.37,21.37,0,0,1-7.24,5.82,21.91,21.91,0,0,1-9.87,2.13,20.66,20.66,0,0,1-9.32-2,19.23,19.23,0,0,1-6.81-5.8v25.81h-5.11V195.5H563a1.42,1.42,0,0,1,1.55,1.33Zm.21,31.88a22.39,22.39,0,0,0,3.22,3.86,16.14,16.14,0,0,0,3.54,2.55,14.38,14.38,0,0,0,4,1.41,22,22,0,0,0,4.45.43,18.63,18.63,0,0,0,8.19-1.7,16.09,16.09,0,0,0,5.88-4.82,21.68,21.68,0,0,0,3.57-7.45,35.72,35.72,0,0,0,1.2-9.55q0-11.82-4.37-17.38t-12.5-5.56a17.35,17.35,0,0,0-9.53,2.72,26.87,26.87,0,0,0-7.61,7.55Z"/><path d="M624.42,171v77.43h-5.11V171Z"/><path d="M663.32,194.65a25.37,25.37,0,0,1,10.19,1.94,20.59,20.59,0,0,1,7.58,5.51,24.27,24.27,0,0,1,4.71,8.59,39.6,39.6,0,0,1,0,22.49,24.31,24.31,0,0,1-4.71,8.56,20.43,20.43,0,0,1-7.58,5.49,28.14,28.14,0,0,1-20.38,0,20.7,20.7,0,0,1-7.61-5.49,24.05,24.05,0,0,1-4.74-8.56,39.84,39.84,0,0,1,0-22.49,24,24,0,0,1,4.74-8.59,20.87,20.87,0,0,1,7.61-5.51A25.37,25.37,0,0,1,663.32,194.65Zm0,50.5a19.65,19.65,0,0,0,8.27-1.62,15.69,15.69,0,0,0,5.91-4.66,20.47,20.47,0,0,0,3.54-7.32,39.89,39.89,0,0,0,0-19.18A20.72,20.72,0,0,0,677.5,205a15.82,15.82,0,0,0-5.91-4.71,21.58,21.58,0,0,0-16.55,0,15.79,15.79,0,0,0-5.9,4.71,21.1,21.1,0,0,0-3.57,7.37,38.92,38.92,0,0,0,0,19.18,20.85,20.85,0,0,0,3.57,7.32,15.66,15.66,0,0,0,5.9,4.66A19.73,19.73,0,0,0,663.32,245.15Z"/><path d="M706.58,208.27a33,33,0,0,1,2.8-5.77,18,18,0,0,1,3.62-4.29,14.82,14.82,0,0,1,4.57-2.68,16,16,0,0,1,5.62-.94,17.44,17.44,0,0,1,3.24.3,8.16,8.16,0,0,1,2.82,1l-.42,3.52a1,1,0,0,1-1,.85,7.79,7.79,0,0,1-1.94-.38,13.35,13.35,0,0,0-3.44-.37,14.86,14.86,0,0,0-5.45.93,12.76,12.76,0,0,0-4.26,2.8,17.78,17.78,0,0,0-3.3,4.6,43.44,43.44,0,0,0-2.58,6.31v34.27h-5.11V195.5h2.72a1.75,1.75,0,0,1,1.27.37,2.12,2.12,0,0,1,.48,1.28Z"/><path d="M738.19,219.87v1a36,36,0,0,0,1.39,10.49,21.51,21.51,0,0,0,3.93,7.58,16.34,16.34,0,0,0,6.18,4.6,20.4,20.4,0,0,0,8.09,1.55,24.46,24.46,0,0,0,6.92-.88,25.9,25.9,0,0,0,4.92-2,26.56,26.56,0,0,0,3.16-2,3.69,3.69,0,0,1,1.71-.88,1.23,1.23,0,0,1,1.06.53l1.38,1.71a14.42,14.42,0,0,1-3.37,3,24.51,24.51,0,0,1-4.69,2.37,34.64,34.64,0,0,1-5.53,1.57,30.48,30.48,0,0,1-5.93.58,25.17,25.17,0,0,1-9.9-1.89,20.94,20.94,0,0,1-7.67-5.51,24.93,24.93,0,0,1-4.92-8.86,38.3,38.3,0,0,1-1.73-12,32.8,32.8,0,0,1,1.62-10.51,24.17,24.17,0,0,1,4.69-8.3,21.35,21.35,0,0,1,7.5-5.45,24.54,24.54,0,0,1,10.08-2,22,22,0,0,1,8.31,1.54,18.84,18.84,0,0,1,6.65,4.5,21.15,21.15,0,0,1,4.44,7.26,27.81,27.81,0,0,1,1.63,9.9,2.88,2.88,0,0,1-.32,1.6,1.27,1.27,0,0,1-1.07.42Zm35.34-3.24a22.73,22.73,0,0,0-1.2-7.64,16.17,16.17,0,0,0-3.38-5.72,14.62,14.62,0,0,0-5.19-3.59,16.94,16.94,0,0,0-6.62-1.25,19.93,19.93,0,0,0-7.34,1.27,16.11,16.11,0,0,0-5.62,3.67,18.3,18.3,0,0,0-3.8,5.75,26.77,26.77,0,0,0-1.92,7.51Z"/><path d="M796.73,208.27a33,33,0,0,1,2.8-5.77,18,18,0,0,1,3.62-4.29,14.82,14.82,0,0,1,4.57-2.68,16,16,0,0,1,5.61-.94,17.54,17.54,0,0,1,3.25.3,8.23,8.23,0,0,1,2.82,1l-.42,3.52a1,1,0,0,1-1,.85,7.92,7.92,0,0,1-2-.38,13.22,13.22,0,0,0-3.43-.37,14.78,14.78,0,0,0-5.45.93,12.76,12.76,0,0,0-4.26,2.8,17.78,17.78,0,0,0-3.3,4.6,43.44,43.44,0,0,0-2.58,6.31v34.27h-5.11V195.5h2.71a1.76,1.76,0,0,1,1.28.37,2.12,2.12,0,0,1,.48,1.28Z"/></g><g id="logomark"><g class="cls-2"><path class="cls-3" d="M186.07,162q-16,27.84-32,55.67c-4.82,8.42-9.52,16.91-14.27,25.37a.54.54,0,0,0-.41.18.85.85,0,0,1-.43-.17l-3.06-5.56-3.06-5.57c-2-3.71-4.1-7.41-6.21-11.08q-2.7-4.69-5.43-9.38c-5.45-9.37-10.94-18.71-16.39-28.07-3.3-5.67-6.43-11.44-9.91-17-1.76-2.8-2-5.1-.25-8,6.59-11,13-22.19,19.44-33.36q12.5-21.79,24.86-43.67a.28.28,0,0,1,.43,0Z"/></g><g id="UWtGqY"><g class="cls-2"><path class="cls-4" d="M139,243.06h0c-1.45.06-2.9.15-4.35.15q-41.71,0-83.43,0c-1.44,0-2.89.2-4.33.31a62.8,62.8,0,0,1-4.46-6c-13.62-23.44-27.11-47-40.78-70.39-1.95-3.34-2.32-5.88-.18-9.53,14.38-24.4,28.45-49,42.64-73.52.6-1,1.38-2,2.07-2.95,1.58.07,3.16.19,4.74.19q44,.06,88.08.07-12.42,21.84-24.86,43.67c-6.41,11.17-12.85,22.31-19.44,33.36-1.74,2.91-1.51,5.21.25,8,3.48,5.54,6.61,11.31,9.91,17,5.45,9.36,10.94,18.7,16.39,28.07q2.72,4.68,5.42,9.38c2.11,3.67,4.17,7.37,6.22,11.08l3.06,5.57Z"/></g><path class="cls-5" d="M186.15,324.11q-25.58.08-51.14.15c-12.9,0-25.81,0-38.71,0-2.29,0-3.83-.55-5-2.7-7.54-13.3-15.21-26.53-22.85-39.77-6.85-11.86-13.75-23.7-20.59-35.57a14.58,14.58,0,0,1-1-2.72c1.44-.11,2.89-.31,4.33-.31q41.72,0,83.43,0c1.45,0,2.9-.09,4.35-.15h0a.85.85,0,0,0,.43.17l1.48,2.52,21.57,36.83q5.47,9.53,11,19l9.27,16.17C183.85,319.9,185,322,186.15,324.11Z"/><path class="cls-6" d="M371.05,166.24c-9.75,16.64-19.24,33.44-28.85,50.16q-6.7,11.7-13.55,23.3c-.49.82-1.56,1.3-2.36,1.92-1.18-1.47-2.35-3-3.53-4.44l-10.25-18.45-10.44-18-.65-1.05c-.11-.17-.21-.35-.32-.53s-.21-.35-.32-.53q-5.07-8.84-10.12-17.67l-10.12-17.66c-.17-.44-.33-.89-.5-1.33l6.16-10.78,21.33-37.41Q316.61,98,325.69,82.22l.62,0c1.87,2.58,4,5,5.58,7.77,7.3,12.45,14.47,25,21.67,37.48,6,10.41,11.89,20.89,18,31.24C373.26,161.53,372.63,163.55,371.05,166.24Z"/><path class="cls-7" d="M185.81.24c-.17.5-.35,1-.53,1.51q-9,15.66-18.11,31.31l-2.94,5q-2.21,3.77-4.4,7.53t-4.38,7.56q-3.93,6.87-7.84,13.76L139.79,80.7l-.38.67a.28.28,0,0,0-.43,0q-44,0-88.08-.07c-1.58,0-3.16-.12-4.74-.19Q61.09,55.26,76,29.39c5-8.6,10.08-17.12,14.88-25.82C92.35.89,94.15.2,97,.21,126.61.29,156.21.24,185.81.24Z"/><g class="cls-2"><path class="cls-3" d="M139,243.06h0q-1.53-2.77-3-5.56Z"/></g><g class="cls-2"><path class="cls-3" d="M139.42,243.23a.94.94,0,0,1-.43-.16h0A.85.85,0,0,0,139.42,243.23Z"/></g><path class="cls-8" d="M326.29,241.62a16.06,16.06,0,0,1-1.08,4.06q-21.84,38-43.87,75.93a5.41,5.41,0,0,1-3.8,2.44c-30.47.13-60.93.08-91.39.06-1.15-2.11-2.3-4.21-3.44-6.32l-9.27-16.17q-5.49-9.51-11-19L140.9,245.75l-1.48-2.52a.54.54,0,0,1,.41-.18l88.48.07c4.24.71,7.09-.76,8.06-5.15q11.7-20.13,23.39-40.26c6.39-11,12.74-22.08,19.15-33.09.34-.58,1.08-.92,1.63-1.37l10.12,17.66q5.05,8.84,10.12,17.67c.11.18.21.36.32.53s.21.36.32.53l.65,1.05,10.44,18,10.25,18.45C323.94,238.66,325.11,240.15,326.29,241.62Z"/><path class="cls-5" d="M280.54,163.25c-.55.45-1.29.79-1.63,1.37-6.41,11-12.76,22.06-19.15,33.09Q248.08,217.85,236.37,238c-1,4.39-3.82,5.86-8.06,5.15l-88.48-.07c4.75-8.46,9.45-17,14.27-25.37q15.94-27.85,32-55.67c6.08,0,12.16-.06,18.24-.07q37.58-.08,75.15-.12a2.82,2.82,0,0,0,.58.1C280.21,162.36,280.37,162.81,280.54,163.25Z"/><path class="cls-9" d="M324.3,77.19c-14.19-24.66-28.48-49.27-42.59-74C280.28.71,278.72,0,276,0c-28.59.1-57.19.06-85.78.07-1.46,0-2.91.11-4.37.17-.17.5-.35,1-.53,1.51q-9,15.66-18.11,31.31l-2.94,5q-2.21,3.77-4.4,7.53c-1.47,2.52-2.92,5-4.37,7.56q-3.94,6.87-7.85,13.76L139.79,80.7c5.72,0,11.45-.07,17.18,0,8,.16,16,.61,24,.66q24.21.16,48.43,0c2.89,0,4.62.76,6.12,3.4,12.58,22,25.33,44,38,65.94,2.09,3.63,3.95,7.4,5.92,11.11a2.82,2.82,0,0,0,.58.1l6.16-10.78,21.33-37.41Q316.61,98,325.69,82.22l.62,0A37.28,37.28,0,0,0,324.3,77.19Z"/><path class="cls-8" d="M301.1,199.11c-.11-.17-.21-.35-.32-.53q-5.07-8.84-10.12-17.67,5.05,8.84,10.13,17.67Z"/><path class="cls-10" d="M279.46,161.82q-37.57.06-75.15.12c-6.08,0-12.16.05-18.24.07L139.41,81.37l.38-.67c5.72,0,11.45-.07,17.18,0,8,.16,16,.61,24,.66q24.21.16,48.43,0c2.89,0,4.62.76,6.12,3.4,12.58,22,25.33,44,38,65.94C275.63,154.34,277.49,158.11,279.46,161.82Z"/></g></g></g></g></g></svg>